<mxfile host="65bd71144e">
    <diagram id="hz3YqqdzkhnKSARbNNQ4" name="Overview">
        <mxGraphModel dx="556" dy="443" grid="1" gridSize="10" guides="1" tooltips="1" connect="1" arrows="1" fold="1" page="1" pageScale="1" pageWidth="850" pageHeight="1100" math="0" shadow="0">
            <root>
                <mxCell id="0"/>
                <mxCell id="1" parent="0"/>
                <mxCell id="2" value="" style="rounded=0;whiteSpace=wrap;html=1;fillColor=#148FCC;strokeColor=none;fontColor=#ffffff;" parent="1" vertex="1">
                    <mxGeometry x="80" y="120" width="300" height="200" as="geometry"/>
                </mxCell>
                <mxCell id="3" value="Ocean Simulator" style="text;html=1;strokeColor=none;fillColor=none;align=left;verticalAlign=top;whiteSpace=wrap;rounded=0;fontSize=18;fontStyle=1" parent="1" vertex="1">
                    <mxGeometry x="110" y="140" width="180" height="50" as="geometry"/>
                </mxCell>
                <mxCell id="43" style="edgeStyle=none;html=1;entryX=0;entryY=0.25;entryDx=0;entryDy=0;strokeColor=#000000;strokeWidth=3;" edge="1" parent="1" source="4" target="42">
                    <mxGeometry relative="1" as="geometry"/>
                </mxCell>
                <mxCell id="4" value="Play" style="text;html=1;strokeColor=none;fillColor=none;align=left;verticalAlign=middle;whiteSpace=wrap;rounded=0;fontSize=13;" parent="1" vertex="1">
                    <mxGeometry x="110" y="250" width="40" height="20" as="geometry"/>
                </mxCell>
                <mxCell id="41" style="edgeStyle=none;sketch=0;html=1;entryX=0.298;entryY=-0.075;entryDx=0;entryDy=0;entryPerimeter=0;fontSize=10;fontColor=#030303;endArrow=classic;endFill=1;strokeColor=#000000;strokeWidth=3;" parent="1" source="5" target="15" edge="1">
                    <mxGeometry relative="1" as="geometry"/>
                </mxCell>
                <mxCell id="5" value="Set up camera" style="text;html=1;strokeColor=none;fillColor=none;align=left;verticalAlign=middle;whiteSpace=wrap;rounded=0;fontSize=13;" parent="1" vertex="1">
                    <mxGeometry x="110" y="270" width="130" height="20" as="geometry"/>
                </mxCell>
                <mxCell id="9" value="" style="curved=1;endArrow=none;html=1;fontSize=13;endFill=1;strokeColor=#2E2E2E;fill=#3E3E3E;strokeWidth=9;sketch=0;" parent="1" edge="1">
                    <mxGeometry width="50" height="50" relative="1" as="geometry">
                        <mxPoint x="390" y="180" as="sourcePoint"/>
                        <mxPoint x="390" y="180" as="targetPoint"/>
                        <Array as="points">
                            <mxPoint x="450" y="210"/>
                            <mxPoint x="400" y="220"/>
                            <mxPoint x="380" y="200"/>
                            <mxPoint x="350" y="200"/>
                            <mxPoint x="320" y="230"/>
                            <mxPoint x="280" y="250"/>
                            <mxPoint x="230" y="270"/>
                            <mxPoint x="170" y="220"/>
                            <mxPoint x="200" y="170"/>
                            <mxPoint x="290" y="170"/>
                            <mxPoint x="330" y="180"/>
                            <mxPoint x="370" y="180"/>
                            <mxPoint x="330" y="160"/>
                            <mxPoint x="370" y="160"/>
                        </Array>
                    </mxGeometry>
                </mxCell>
                <mxCell id="10" value="" style="ellipse;whiteSpace=wrap;html=1;fontSize=13;rotation=15;strokeColor=none;" parent="1" vertex="1">
                    <mxGeometry x="195" y="220" width="70" height="30" as="geometry"/>
                </mxCell>
                <mxCell id="11" value="" style="ellipse;whiteSpace=wrap;html=1;fontSize=13;rotation=15;strokeColor=none;" parent="1" vertex="1">
                    <mxGeometry x="260" y="205.18" width="14.82" height="14.82" as="geometry"/>
                </mxCell>
                <mxCell id="12" value="" style="ellipse;whiteSpace=wrap;html=1;fontSize=13;rotation=15;strokeColor=none;" parent="1" vertex="1">
                    <mxGeometry x="200" y="190" width="14.82" height="14.82" as="geometry"/>
                </mxCell>
                <mxCell id="13" value="Ocean simulation is already running on main menu; the player just hasn't started controlling the diver." style="text;html=1;align=left;verticalAlign=top;whiteSpace=wrap;rounded=0;fontSize=13;fillColor=#99D0E0;strokeColor=default;spacing=6;shadow=1;fontColor=#000000;" parent="1" vertex="1">
                    <mxGeometry x="385" y="120" width="180" height="110" as="geometry"/>
                </mxCell>
                <mxCell id="14" value="" style="rounded=1;whiteSpace=wrap;html=1;shadow=0;fontSize=13;strokeColor=none;fillColor=#dae8fc;glass=0;sketch=0;arcSize=5;" parent="1" vertex="1">
                    <mxGeometry x="120" y="360" width="240" height="200" as="geometry"/>
                </mxCell>
                <mxCell id="15" value="Set up camera" style="text;html=1;strokeColor=none;fillColor=none;align=center;verticalAlign=middle;whiteSpace=wrap;rounded=0;shadow=0;glass=0;sketch=0;fontSize=13;fontColor=#030303;" parent="1" vertex="1">
                    <mxGeometry x="120" y="360" width="250" height="20" as="geometry"/>
                </mxCell>
                <mxCell id="16" value="" style="rounded=0;whiteSpace=wrap;html=1;shadow=0;glass=0;sketch=0;fontSize=13;fontColor=#030303;strokeColor=#030303;fillColor=#B8F2BE;" parent="1" vertex="1">
                    <mxGeometry x="125" y="380" width="230" height="160" as="geometry"/>
                </mxCell>
                <mxCell id="17" value="OK" style="rounded=1;whiteSpace=wrap;html=1;shadow=0;glass=0;sketch=0;fontSize=10;fontColor=#030303;strokeColor=none;fillColor=#8A8A8A;" parent="1" vertex="1">
                    <mxGeometry x="313" y="541" width="41" height="15" as="geometry"/>
                </mxCell>
                <mxCell id="33" value="" style="group" parent="1" vertex="1" connectable="0">
                    <mxGeometry x="130" y="413" width="181" height="127" as="geometry"/>
                </mxCell>
                <mxCell id="29" value="" style="endArrow=none;html=1;sketch=0;fontSize=13;fontColor=#030303;strokeColor=#9C8854;strokeWidth=15;" parent="33" edge="1">
                    <mxGeometry width="50" height="50" relative="1" as="geometry">
                        <mxPoint x="8" y="93.5" as="sourcePoint"/>
                        <mxPoint x="51" y="64" as="targetPoint"/>
                        <Array as="points">
                            <mxPoint x="18" y="73.5"/>
                            <mxPoint x="33" y="69.5"/>
                        </Array>
                    </mxGeometry>
                </mxCell>
                <mxCell id="26" value="" style="endArrow=none;html=1;sketch=0;fontSize=13;fontColor=#030303;strokeColor=#9C8854;strokeWidth=15;" parent="33" edge="1">
                    <mxGeometry width="50" height="50" relative="1" as="geometry">
                        <mxPoint x="126" y="50" as="sourcePoint"/>
                        <mxPoint x="166" y="20" as="targetPoint"/>
                        <Array as="points">
                            <mxPoint x="156" y="40"/>
                        </Array>
                    </mxGeometry>
                </mxCell>
                <mxCell id="19" value="" style="ellipse;whiteSpace=wrap;html=1;rounded=1;shadow=0;glass=0;sketch=0;fontSize=13;fontColor=#030303;strokeColor=none;fillColor=#9C8854;" parent="33" vertex="1">
                    <mxGeometry x="66" y="10" width="40" height="40" as="geometry"/>
                </mxCell>
                <mxCell id="21" value="" style="rounded=1;whiteSpace=wrap;html=1;shadow=0;glass=0;sketch=0;fontSize=13;fontColor=#030303;strokeColor=none;fillColor=#1E991A;" parent="33" vertex="1">
                    <mxGeometry x="61" y="47" width="50" height="80" as="geometry"/>
                </mxCell>
                <mxCell id="22" value="" style="endArrow=none;html=1;sketch=0;fontSize=13;fontColor=#030303;strokeColor=#1E991A;strokeWidth=22;" parent="33" edge="1">
                    <mxGeometry width="50" height="50" relative="1" as="geometry">
                        <mxPoint x="106" y="58" as="sourcePoint"/>
                        <mxPoint x="136" y="50" as="targetPoint"/>
                    </mxGeometry>
                </mxCell>
                <mxCell id="24" value="" style="ellipse;whiteSpace=wrap;html=1;rounded=1;shadow=0;glass=0;sketch=0;fontSize=13;fontColor=#030303;strokeColor=none;fillColor=#1F1409;" parent="33" vertex="1">
                    <mxGeometry x="63.5" width="45" height="40" as="geometry"/>
                </mxCell>
                <mxCell id="25" value="" style="endArrow=none;html=1;sketch=0;fontSize=13;fontColor=#030303;strokeColor=#1E991A;strokeWidth=22;" parent="33" edge="1">
                    <mxGeometry width="50" height="50" relative="1" as="geometry">
                        <mxPoint x="36" y="70" as="sourcePoint"/>
                        <mxPoint x="66" y="60" as="targetPoint"/>
                    </mxGeometry>
                </mxCell>
                <mxCell id="27" value="" style="ellipse;whiteSpace=wrap;html=1;rounded=1;shadow=0;glass=0;sketch=0;fontSize=13;fontColor=#030303;strokeColor=none;fillColor=#9C8854;" parent="33" vertex="1">
                    <mxGeometry x="156" y="13" width="25" height="24" as="geometry"/>
                </mxCell>
                <mxCell id="32" value="" style="ellipse;whiteSpace=wrap;html=1;rounded=1;shadow=0;glass=0;sketch=0;fontSize=13;fontColor=#030303;strokeColor=none;fillColor=#9C8854;" parent="33" vertex="1">
                    <mxGeometry y="83.5" width="23" height="23" as="geometry"/>
                </mxCell>
                <mxCell id="34" value="" style="endArrow=none;html=1;sketch=0;fontSize=10;fontColor=#030303;strokeColor=#E0EEFF;strokeWidth=8;" parent="33" edge="1">
                    <mxGeometry width="50" height="50" relative="1" as="geometry">
                        <mxPoint x="85.5" y="127" as="sourcePoint"/>
                        <mxPoint x="86" y="57" as="targetPoint"/>
                    </mxGeometry>
                </mxCell>
                <mxCell id="36" value="" style="endArrow=none;html=1;sketch=0;fontSize=10;fontColor=#030303;strokeColor=#E0EEFF;strokeWidth=8;" parent="33" edge="1">
                    <mxGeometry width="50" height="50" relative="1" as="geometry">
                        <mxPoint x="9" y="92" as="sourcePoint"/>
                        <mxPoint x="86" y="57" as="targetPoint"/>
                        <Array as="points">
                            <mxPoint x="20" y="73"/>
                        </Array>
                    </mxGeometry>
                </mxCell>
                <mxCell id="37" value="" style="endArrow=none;html=1;sketch=0;fontSize=10;fontColor=#030303;strokeColor=#E0EEFF;strokeWidth=8;" parent="33" edge="1">
                    <mxGeometry width="50" height="50" relative="1" as="geometry">
                        <mxPoint x="168" y="25" as="sourcePoint"/>
                        <mxPoint x="86" y="57" as="targetPoint"/>
                        <Array as="points">
                            <mxPoint x="149" y="43"/>
                        </Array>
                    </mxGeometry>
                </mxCell>
                <mxCell id="38" value="" style="endArrow=none;html=1;sketch=0;fontSize=10;fontColor=#030303;strokeColor=#E0EEFF;strokeWidth=8;" parent="33" edge="1">
                    <mxGeometry width="50" height="50" relative="1" as="geometry">
                        <mxPoint x="85.5" y="24" as="sourcePoint"/>
                        <mxPoint x="86" y="57" as="targetPoint"/>
                    </mxGeometry>
                </mxCell>
                <mxCell id="39" value="✅ Motion-control is working" style="text;html=1;strokeColor=none;fillColor=none;align=left;verticalAlign=top;whiteSpace=wrap;rounded=0;shadow=0;glass=0;sketch=0;fontSize=10;fontColor=#030303;" parent="1" vertex="1">
                    <mxGeometry x="125" y="537" width="145" height="19" as="geometry"/>
                </mxCell>
                <mxCell id="42" value="" style="shape=image;imageAspect=0;aspect=fixed;verticalLabelPosition=bottom;verticalAlign=top;image=data:image/png,iVBORw0KGgoAAAANSUhEUgAAAggAAAF7CAYAAAC3onORAAAAAXNSR0IArs4c6QAAIABJREFUeF7snQecHNWV9U9V9wTNKGcJBSSBJASILJBEFiCyAWPYNQaD4xqza6+9tnft9Tqy3nVap88BGwdsDAaTcxASQogcBUoIZYQiSqPRzHR31ff7v+43KjUjTeru6e55ZTczmq6uenVfdd3z7j33XC8Mw1BucxZwFnAWcBbIuwXa87j1PC/v43EncBbYnwU8BxDcDeIs4CzgLFAYC9TV1Wnx4sVKpVKqrKw0r1gsZl4VFRWqra1VTU2N+d33ffNiAywALrJBgwMRhZm37noWBxC668y763YWcBYouAVeeOEFPfroo83njTp4AEA8HjcgYdiwYebVr18/9ezZUz169FBVVZUBDuwDcNgXOHCgoeDTWrYndAChbKfWXZizgLNAsVlg+fLlevDBB7Vz504FQdAcHSCSAAhga2pqUmNjo4kysPFe//79NXz4cA0cOFB9+/Y1IKK6utp8xkYbLDBwAKHYZr10x+MAQunOnRu5s4CzQIlZAMe/ZMkSLV26VJs2bdKOHTsMECBSMGrUKAME+Pd7770n0hG7d+9WQ0OD+QlwYAMQ9OrVSwMGDNDgwYM1aNAg8zkiDYAG0hUtbTZNkf2eAxQldhMVcLgOIBTQ2O5UzgLOAt3bAqQReNXX12vNmjVasWKF+blt2zaTOjj44IN1+OGHa+jQoSaKQKRh69at5sU+/HvXrl0GMNgoA6mHIUOGmM8AGgAP8BgAC7wAFICGKECIggIHELr3Pbm/q3cAwd0bzgLOAs4CXWABgAKOfvXq1XrrrbcMWMD5wz0AJBx44IHq06eP4RuwL4CAiANAgZ/bt283kYYtW7YY4JBMJpuJjnwOoEAqghfRBfuyJEgASVvAQVv26QLzuVMWwAIOIBTAyO4UzgLOAs4C2RawJY/8xMHDT3jttde0fv16Q0iEczBixAhNmDDBpBCyCY0AAj4HQOBFysKCByIUvM+xiR4QSQAoRKMLAAULHgAUvXv3NnyHlgCBAwnd8/51AKF7zru7amcBZ4EisYAFCnAM3n33XVMGCU8BDgKOfeTIkTrllFMM34AtGyjwecAA0QebfuAnn7eRBqIN/I0oBPsTlSD1YMmRgAXLa7BESMtpsKWW+w1FO82GIrmbcjsMBxBya093NGcBZwFngXZZICqeZKMJGzduNBGFN954w5ATDznkEJ177rnGqUdBwr6El6iQSCQS5rOW5EhUAaBAlAHwwMuCCvYFeABILH+Bn0QW4DdAhOR3qibYz0UZ2jXFJbuzAwglO3Vu4M4CzgLlYIGWnDyVDDj0N998U7NnzzaO+bjjjjNljuPGjTOExuxowr5sYYmR/AQI2BdRB37nPJs3bzbRiw0bNpi0hQUMABLSHRY4ABIgQlJ1ES23tMCltflwqYrWLFRc7zuAUFzz4UbjLOAs0E0skA0MrANnlf/OO+8Y8uLatWvNip+NdMCYMWM0c+ZMQzhsD0DYn0k5L4DEAgeiCnAaAAzwIQAPNjWBg4fTAECxCpCMBWIlZZpEGkhVABickFPp38gOIJT+HLorcBZwFigSC+wr5G+dZfR9nDJVDIT6cciUOwII4A1ECYY4bsL9J598suEjQFiMSjDn6tJtpIHj8TtpCsYIYCCywPj4CYAh6sB79npsGSXAAcDAGOFMkJ4g4gABcn+goa1gJ1fX6o7TNgs4gNA2O7m9nAWcBZwFWrXAvgACDt+G8tE0YFWOw6VMkffsRjifMP4BBxygsWPHmpX53LlzTVoBHkJXh+ijhEiug8oJCxys6FO2kQAzXBNlmwcddJCpzCBl4XgMrd5OXb6DAwhdPgVuAM4CzgLFYIH2dFq0q+zoajsaqmfVbQWOorl9W3bISpuoACtrQvLk8wEDrLr5u+21kN2gqRgAQvZc2esmFbJu3ToTZeB3WzkBUdJGG9gXEARIAAQRYbBchqhkdLZsdFdfdzHcn10xBgcQusLq7pzOAs4CBbVAW52/7Y9gw+3WUdtwu83Vk5MnPcALMGDLCQEFOEbeZ+PzhN9xioTecYikCQAD/Lu1sHtBjZSjk1lb2/QEPAaiDAAlgANVFbyHTdkXsARQwjZoP6AICWiAmGkbU7U0NAcacjRh+zmMAwj5t7E7g7OAs0AXWaAlIqB19jhxVreE+O3Llgbyd37HceHcLU+AkDp8AYABTi5K2sOZ4fAt45/IgGX9U32AKFFLmgLl5uj2BcawFwAK8iUpFltmaWWjmQ/mARthL1IsAAbbZ4J5YHNNqQr3ZXIAoXC2dmdyFnAWyKEF2hIVsDlznD0rVysgxCofZwUHgL9ZQICDsuFwHBXhfiIAgAqcP6ta20XR9jqwgCCqVIgz219L5miKItsk3QUwYGvAAVEFAIPtN2F7TvAeoItoC/wFwAJRBqvFYO1WbvbK4Vek04dyAKHTJnQHcBZwFugKC0RZ97YREY48Kg5k1QRtDwNW/4ADnBPOB0dO+SAgAABgowD27/ZvOH/C3rxsGV+UJxBd2UZt0ZLzag3YlJvDa+16rb3YjygCYAEugy2xZL4Ad0RjDjvsMNPQCq6G7VpZbvbqiu/Svs7pAEIxzYYbi7OAs8D7LLAvB2PJcaw0rUogzgShHwsMWI3yHvsCBKyksHX08ABYkVpBIPYBHPCy+W+rHNgRR9TS2O24bbQCUGN5CtFWzR05X1ffPvu6Xq4V508kx+5j0zOM2Uo/RzkHzCuER17wF+AxABSIJiAaxc99qTp2tR3K5fwOIJTLTLrrcBYoUwtEnQ6/EyEACOA44ARYtjxRAoBBNhggh83q03Y2hFewv8ZE+1xNdaDfgI1y8BOHRwTDsvwt/4GUBsCEDo6w+0t1ZWznyV4zYACAhmw018zccM12P0CB5WTw0yo2RhtLWaIiIA/p6Zdeesl8fvLkyTrjjDOa21iX6a3f5ZflAEKXT4EbgLOAs0C2BaKrTFbYrBzhC9iSQVtGZwEBkQGiApDbAASkASxXwDYdisoT52t13hIpElCwbNkyEza3EQ6b4mBMvPjctGnTNGnSpJIACPuKFBAlgEtgV/3MGdcMOAIEWUDA55lXWzUCSOLFhj1sEymb/uFz2AwbMtfTp0/XkUce6SIIeX50OICQZwO7wzsLOAu03wLWeeBcVqxYoVWrVjU7V0teQ6EPAhtlcUQEWG0SJQAY4GT2BwLyDRAYP84RYMDKl0gHTo6xWmZ+NI2Bw6S/AeMvBZZ+lP/B6p4oAeCNn7YZFNECgBrXjOYBAM6CNPt5CwqskBTpIUij/CQiFC2JtNUNRxxxhKlwACiw5Wsu23/Xlt8nHEAovzl1V+QsUFIWiK5GLdmQVSidDN9++23jKOwKFK1/NP9xsoAC23nQSv12hbOIjh+HR8Rg0aJFBtjgLOE3HHrooUYN0UYzAAed4TZ09QQDgOx1UraIQ8eZYwvSOcwPoMCWd9pUgb3mKMDgWqK8DNtEihSF1UvgfAAEwB/HL0f9iK6e05bO7wBCMc6KG5OzQDexQNRR8DtgYMGCBVq8eHFzV0FWnhMnTjSNigAFOIlouDpqqkIDhCjHACdJ90XGDjAAvEyYMEHjx483aQ+cZIsP4Q5wG7r69gD80GWS+SIqQGqBOZkyZYqRU7ZzZCMG2XO0L+Jpe66r0HPdnrGVy74OIJTLTLrrcBYoAQu0lKNn5Un3wldffdU0K8LZsGIkhXDssccacGBz0cXGWmecpEEANQsXLjS/A2KOOuoo0zvB6igwNS2JJJXAlO01RDt/VBRAGOQaX375Za1cudJER0488UTHDSi1Sd3PeB1AKKPJdJfiLFDsFrAOxqrq4VRJJeBYeQ8AADCgjA1Wf2tcgq6+XkiSc+bM0euvv27y7dTpAw4ACcUGZnJhq6gUNdyKBx980FQnkOLh2qksyFY8zMV53TG6xgIOIHSN3d1ZnQW6jQWiaQTyyjDcWXW+9dZbpi6elTXkPEr8KF8jlRANHxdzKNmSEQE4ECYJrdutnABCtIQRjsCLL76oefPmmcoCoiQAOl5wA6LX321u8jK9UAcQynRi3WU5C3S1BaJOhYgBrH5W2q+99ppxLOTkIR2ijEeenhA1TrUcQvFdbftcnT+aEuJ30kGkgubPn28IhICiGTNmGFJiMQO5XNmjux3HAYTuNuPuep0FCmQBGzmAvEc1wnPPPWdSCbDQ6WhIzT9RA1adUd0D52gKNEFtOI2dFxspgXcAEZMNUGdTCuUULWmDWbrNLg4gdJupdhfqLJBfC2QTEFlhkk6wUQMiBhYYUMfuStXyOx+dOXp0LgEH9Ed49tlntXTpUsMxgG9w/PHHm/SCA3SdsXRxf9YBhOKeHzc6Z4GSsUCUa4BuAaVw5KoR0CGVAOkQ1rtNJXBhzrkU5/RG00Okhoj+oO3A3EHChCsS1XIozqtwo+qsBRxA6KwF3eedBbqpBVoqWYRbgJoeK00iB+SsqYvHoSAUVMriQN1hmrM5B1QoPP/882YuIWASNQDk8btLK5T/HeEAQvnPsbtCZ4G8WCBbQZCVJsAAvgFRAwSOAAY4FH6Pbi5ykJcp6fRBo5EDuCMQEl955RVTbooIEoqQpIpKQQ6608ZwB5ADCO4mcBZwFmi3BaKOhFUmPQcABwAD3kPciOoEZJEROXKAoN0m7pIP2DQRKSKqTUgRsR199NGiB4LtFeHms0ump+AndQCh4CZ3J3QWKG0LWHBAOgFAwAoTPX7SCZS7QWAbPXp0s1gQV+scSmnMOXNLkyXA3ty5c42qJeAA3gFCUC5yUBrzmKtROoCQK0u64zgLdAMLWHAAGFiyZIlZYdJ3wKYTDjzwwOaufS5HXVo3hG2YhGzyrFmzTJ8FIkEnnXRS2SpDltYMFX60DiAU3ubujM4CJWsBSt4scQ2JZJwKoWdy0+gbWJlde4EuclA6U81c0pb63nvvNZ0aKUU99dRTjfS1ixyUzjzmcqQOIOTSmu5YzgJlagEbOUDo6P777zfNlWjlS3MepJFt1z4XNSi9GyCaMvrrX/9q0kYIWJ177rkG9KFs6YBe6c1rLkbsAEIurOiO4SxQ5hawTXpuvfVWwzegdHHmzJl7aRqUuQnK9vIsMfGxxx4zKSMiBhdeeKGRUXbAoGynvU0X5gBCm8zkdnIW6B4WiFYn2CtGERFWO+Hnv/3tb0YBEcIaIWh0+G3vBOdMSuseiQpbIYJ0zz33mBJG5JNJGbloUGnNZz5G6wBCPqzqjuksUOQWyBY5ig6XaAEv2OykFOi6SD083AM2WvsCECCwnXLKKebfbA4gFPmkZw3PAoStW7eK1AK6B8ccc4wBCHZOS+uK3GhzbQEHEHJtUXc8Z4ESsEC2Yh7/pmyxvr7esNchqQEM1q5da7r28QI0QEJE+OiEE05Qv379SqYtcwlMScGHaLszPvDAA2auhwwZossvv9z1Vyj4TBTvCR1AKN65cSNzFsiZBVqKGODwAQW7du0yrZh5rVu3zoACyhiJEiByxO9EEkglULFA1MDq8OdsgO5ABbNAtEPjggUL9MQTT5hzX3zxxUa/wqUWCjYVRX8iBxCKforcAJ0FOmeB7M58iUTChJPp0Ed4GW6BFTpCKQ+SGi869bHP4sWLDVBAAImaeNuF0aUUOjcvXfVpm1qg0+ZDDz1kOm4ihkRqwfFJumpWivO8DiAU57y4UTkLtNsC++IVkB4gCmDBANEAUghEC/g7oIDwMmWLvGCvk2p44YUXTF8F3kdJ77jjjjO5aQcM2j01RfGBKAEV0umcOXP05ptvmrm/4IIL3pcyKopBu0F0qQUcQOhS87uTOwvkzgLZzZNwAnRWZIWI2iHRAF4ABtIHQ4cONW2YUUHk9969e5sVJBoHFhxQB08HP1jtUa2D3I3aHalQFrD3B/O/cOFCPfnkk+ZeOPvss03fDKd3UKiZKJ3zOIBQOnPlRuos8D4LZJMNSR8ACpYvX25+wiuAdMiqH1IhUsiDBw82AIF/9+zZszmsDCdh1apVevbZZ7VmzRoDHqZOnWraNAMObPjZTUNpWsCmFphj+iwgiDRt2jQTGbLtm0vzytyo82UBBxDyZVl3XGeBAljAPvRZCeLUkT+GU0DEAIcPGEDpkDAyYIBoQbRdrx0i+6LBP3/+fJN64HM4Dz4L54DNpRYKMKF5PAX3ChGkp59+2vTRAPghpdy/f39HTMyj3Uv50A4glPLsubF3Owu0xDMgQjBv3jxDNIR8CAAgZIwDIEUAMKDqIBpCzo48sKok5Lx+/XrTkZEyRqINRA4cq720bzM711SroJT40ksvGQLqWWedZaoW7H3hAGBpz3M+Ru8AQj6s6o7pLJAnC0QdO614UcB7/vnnTRkiwGDy5MlGwAhQ0FKkwDqBKGGNiMMjjzxiuAcHHHCApk+frpEjRzZHDlz0IE+TWaDD2hbOlDQSPaC0lR4aRx55pKlOsZsDCAWakBI6jQMIJTRZbqjd1wJRYADPgNJDVvxUG5AeYLV/zjnnmIoDKg1a4wvY1AQh5/vuu88QGYkcnHzyyRo1apRbVZbBrZZNSkTvAFA5ZcoU87IA0gGDMpjsPF2CAwh5Mqw7rLNALi1gmyVBOqR2Hb4BDgC9AkLF9EVo62bBAce67bbbTPkjpY3kowEaLqXQVksW937MM/cNqSdAIFLZCF2hZQFJ1QGD4p6/YhidAwjFMAtuDM4CWRaINtLhLfQKqFl/7rnnzIMebsFpp52mCRMmmE+25WFvj2nJanRmJC9NtQIiOYADF24uj1sRYMA8ExmiPTe6F9wrgANApQOB5THP+b4KBxDybWF3fGeBdlogyg+gOoFyRaoLEC2CbEir5dNPP92EiFtLJXDqbCVF0go050EnAf0DwAGcg7aAjHZeitu9wBaI3jtEhh5++GETbaIahfQR8+3mucCTUsKncwChhCfPDb38LBB9wMM1oPSQCgVWgKgcIloEQLDksrY87KPRCMDGLbfc0gwOZs6cabgHbY1ClJ/Fy+uK7P0DN2X27NmCmEjJKoDS9Vkor7kuxNU4gFAIK7tzOAu00QLWmQMO6LAH65z0wvjx400rXtIBbQEF0dNZ/gLVCoSbbSkjkYMRI0a0+3htvBS3WwEtkE1iReyKewfdCyIHdOBsS7SpgEN2pyoBCziAUAKT5IbYfSzAgx5wsGLFChM5QNeARjqUpEEs68hKn2OyonzssceMQA7HQV7XERLL576K8kvgqlC2CiBACROlRKtnUT5X7K6kEBZwAKEQVnbncBZogwUs6xw9AkrSSCvQQRHRIvoktDdyYFeVRBBefvllAzgAH5RD0lvBrSjbMClFvks0JcXvVCwQJQIQZrfmbu/9U+SX7oZXAAs4gFAAI7tTOAu0ZgG7AqRCgTJGlA1RQ0TQBu5BRyMHfA7NfdvWl66M8A4ci721GSmN96MAgYqFWbNmmXsHFU3mmRSD3RxAKI05LaZROoBQTLPhxtLtLJBdYfD444+b1T66BKz0IZi198EePSZVEBzz9ddfN6WRl1xyieExuK20LRCdY34n2oRw1rJly0xvBdo303/DAcHSnueuHr0DCF09A+783doC0RUg5Wi33367KWUEHLAKbE/kIHosPmcbMJGugKB47rnnmtRCVF63Wxu/hC8+Otc05iJ9hLomjbU+8IEPNPNL2nP/lLA53NDzZAEHEPJkWHdYZ4G2WCAqh3vTTTeZbntUK8A8t10U93ec6ErSggL0DSiPXLp0qdFQoE8D4jgXXXSRWV067kFbZqaw+2TP474ce3bkgLlFI4OeHADCM8880/TjiDbmKuyVuLOVkwUcQCin2XTXUnIWsNwDVvg33nijqTD46Ec/2mYpXFvCSCqBY9DuGaIaCokABfv+eeedp0mTJjk2exHeIcwdUQDSAcw/vTT2lRqIVivYLp5EDjgGypqAg+rq6nZFnorQJG5IRWIBBxCKZCLcMLqnBewD/5577tHChQtNJ8aLL774fQ6ipRUmFqMzH6Q0at5RzqMZD86Cqgc+Q5kkzZfo19ARDYXuOSuFvWpKWpk/HP4pp5xiNC8oS4xGEbIjB8w1WgeUNAICkVCmFLat6pqFvUJ3tlK1gAMIpTpzbtxlYQGre/Czn/1MTU1N+tSnPmXSANkryGwHATBYvny5kdKlpI0NbgHaBqgtAhIgrVEySU4a4OHCzsV5y6xdu9aoHhL5ARjQNAtnT4rJpoOinAMiRXPnzjVCWryPSiIljcx/ewmtxWkRN6pisYADCMUyE24c3dICVsTo17/+tVn9U2VwwAEHGKKiDTWzDw4fDQPSBnALnn/+eZNGwKHU1NQYvQSAAStI9n/ppZdMyRvcA0SROKZjtLd8i9koTnTFnv17Pm9Ozo+zh2hIqSIRgcMPP9wAhZ49ezafmr9Tsgo4gGNCKoGIA/u2R3o7n9fijl1eFnAAobzm011NiVnAOv+///3vZgVJZIAHP9K4pAYACQABHAPvQ0rjM+xTW1trIgOo5UUrEwAShJ9xJNOnT28GDiVmmoINN5rX53eAVJTIme9VuY0OAA4gHBIZIpqEDDbcEcpT2Yf5nzNnjgERAAcAIboWRBryPcaCTYY7UVFZwAGEopoON5juZgHrnAAGzzzzjJFYhjdApICogV3JAhSIKgAM4BcAIHjZSoeog4DwBjigUQ8OxrLau5tt23q9zAGrc1I1hPshCqJDYUFCvp1vNH0EMKClN1oYAEPSTfBHGAPpJAAif0M+mcjB/giNbb1+t5+zwL4s4ACCuzecBYrAAtZJABTQQ6C1MyCBDRBAtADhGxwXv++PT7Bu3TqTXsDZARBwJPl2ckVgwg4PwQIEbH7nnXeabpmkZbCzBWgdPngHPggwfPHFF/Xqq68aASTmmjQSTbtoy00Z7NixY5vBQQdO4T7iLNAmCziA0CYzuZ2cBfJrgewqBRvq3t9Z9+X0yU/TmOm9994zAAFxJAcQ9m1JG8VBM4LVO0AMkiARm64ACHY8lC++9tprpkoF0EBagZQRY7MA0c1rfr+X3f3oDiB09zvAXX/ZWYAcNt38SFVY/QPnSFqfZtIMEEUJ2xdDXh+gQAQBwin6FnBLiCDAPRg9enRzKWT0ytw8tz7Pbo+2W8ABhLbbyu3pLFASFoDHQASBWnnklalwcI6j9anLjuJ0tc3seEgtABJIO5B2Gjp0qCEnkgoh9RCNcnT1mFu3stujlCzgAEIpzZYbq7NAGyxAxQP9FwhNW5Jid3Ec+xKUyk4V2P1KwS5ENiAvwkmAvAjwo0sjFSykG/r167cXACyFa2rDbex2KQILOIBQBJPghuAskEsLkFqgph5nMmPGDENqa0tfh1yOoauO1RJAyAYD0X+XgjO14yX9AegDKJBGYk6JIlDmSktwey2u10ZX3X3ld14HEMpvTt0VdXMLQGiDbIc6Hx0hUdqLtnguBafYninMBgWsuKkGodwTzQDKF+EVoCeAI6U6AYGpbEeKXdoagWjP+HKxb7TKBfIp4I8yVjb0MmjuRWvwaHVLuc1zLuzojtE+CziA0D57ub2dBYreAjgT+jpQ6kj+GrW9cm7iE9WSIL3CChs5YsLyvGzDKkABq25+onVAeB5paktIbMmhFku0IQpc+J0oESDwlVdeMaCGNAPKi5Q/ZvdxKPob1g2waC3gAELRTo0bmLNAxyyAw6irqzNiSThLxJVo5oMeAqV71hGW+grTOk2IezQ7QoIaQEAoHlBA1ACFSQAAURX+TmTBlpBiF94nooBtUC5Eqpq/sS9lj5QWsjK3gkQdm5Hcf4prIDKC8uLrr79ugCBjBwxCYIzObanPc+6t547YVgs4gNBWS7n9nAVKxALWceI8AAn236yaL7/88uZ0Q6k7DkAAZYB/+9vfjMIgG2CAkPsJJ5yg4cOH78W9YH/2Q1+AlTfdE210YV9TiyZCtJdFsd0CzC0dHWnMRUqF7cQTTzR6CU4rodhmq/TG4wBC6c2ZG7GzwH4tYAEBDYBIM5CzjoKBq666ypTKlaoDiZL2Hn/8ceMg2WbOnGlEoWyIvbXbhCjLkiVLTJSFkD1gwaYr+Mlx6JKIrDHgan+Ayn7OnrNQURprC1Qz0b4g6sHfbB8Hqh2yJaNLHRi2Nq/u/dxZwAGE3NnSHclZoKgsQOj9oYce0qJFi0z/Bhwg+v5sF198sWHAR51psTsO6wz5yXWg9QAIImowZcoUTZs27X3Ew7ZMCMezKQiOi91IM+BcSUO0xS4cgzA/YkZ8BrvyubZ8ti1jbG0fzg/vApBAi2+uh3EQTZg0aZLRS8geT6HG1trY3fvFawEHEIp3btzInAU6ZQGcBg2g6OyI06McDhnm9evXGwd20UUXacyYMUXf8CdK0APksNonpA7wgSMAgx8n2FGewP4qF5iAtjhSHDKRCMZExIHqEcaTHVHo1ITu58P2GgApgAQ6P2In5hkgiI0gMroqh3zNQHke1wGE8pxXd1XOAibUDDCgCyChdLoAnnnmmca50tCJVSU6CYAEHG1bHGFXmNWG7yEgEkJ//vnnTTOrAQMG6LTTTjOywx0FB7m6HsiP9E2gHTPcB6IZBxxwQDNIKJRtra2WLVtm1BcBCoAXeBnwEhhTSx1Ac2UHd5zysoADCOU1n+5qnAWaLWBXlYADuAiQ2CiFw6GyyiSSAPOdEsiDDz7YNCmyDYqyzVgoB2fPG13VE7YHGJBnh2BIKSOVBfZa7Eq90GOM2siG+CGGUk2BjS1RspBlh9E0DCTMp556yoyHyALggFQMpZ3Me6GiG+4rWboWcAChdOfOjdxZoE0WYAUJmY9yOJzopZdeavgIiO3gPPgbDpcaergKlP2xOkdYqKtWm1bsCBDDKpiIAVEPxkPDomOPPdasim2uv02GyONOduUOeAEk0A+DSAKkSSSRAV6FVji05a70cEBUiZQDQlEoazKmlngJeTSRO3QJWsABhBYmLeRvofmvwsZdSm1aqXB3nWKDx8jvPVAh5CPzPzZPodKtTPXxAAAgAElEQVT7ip8eH+WdMPN+5u+phLR7h5Jb1ivYvkGhfFUMGydv4AjJ8zNHMgnP5iOX4P3khlyEFsBRsAK///77jbLgsGHDdP755xuHRRiacDT6/mxWRAjlRUACaQmAQ0spiM6s2PeX92fli5Qw1RdEDSDd4WBh5rMyZzyMLZud35Wmj67cATLwEYjcAGholkU0wa7aO2O39lyjHRNpJgACKRCIjHAR4EkwLoiMLpLQHqt2r30dQGgJIIQZlx+klFr1moL5t0q7tksjJil+zExp0Bj5fmXmkwYRGJAAcDCQAXARpKREvVIbVytYt1ix7Zvk7d6hYNsGpXZuNqAgPnS0kpPOVHziVHk+IMGTb6FH+lBucxbotAXs6haHRWoBpv4hhxxiGjmxUkffH+CAI+Yn4WirDwAwYKUOo580BOAiF4456lBtCoHVN+CAF1EDxglg4fzjx483IXJWwMWQUtjXpFhbA7iwt+3ASGgfsaqu4ErYCgsqPl544QWTWgL40TYacicVG4WsuOj0De0OUDALOICwL4CAk08llHr9MQVz/iBV18pLBPL7DFBqwEiFNX0VVNZItX3l9+gpv7JGngIFO7dIG9fI37lFXmKXwrrNSu14T0G8UvGBI+SNmKBY/2FSY4MSL94rVfSUf+pVio09ujmKYGITGbBRsDvBnahsLRB1xkgw33vvvcZRHX300YakyAbJDsdMGBoyIIJC7IszIUXB/jhn0g6s5ll5koogjA5oYKVsgQPn25dsMWAALsSaNWtMVAM1QM6NJgHnB5zweY4NiCFfjjPj1VLvhGKbtKgeAtd0zz33mGvFCV922WUmPVLoFbudf+aVyAyVLYAx5hIbU91S6OhGsc2bG0/LFnAAYZ8AQQp3b1Pw3J0Kljwv75hz5aUalXxtlmI7NsjzfIWxmPx4heTF5cWIAPgKk00KkHT1YvJ691d89KHyRxymsNcAqaleXr/h8vsMVphKKFj6rJKzbpA/fpriM6+VMlEEk2RwAMF9Z3NsARwFzhhthDfeeMM4easfYFeQ1sHhyAEJrOJZebI/oWo2HDWAgdU9eWyci/1bFCjY5keckxdRCdu6GGAAGAB8WEBBlAJAQFkex+TfAIVCiQ7lwtzRCALyz6RvsDOgCHGqK664woAFtkJ/xxmbBQmMjWgRY6OKBZEpy0nIhR3cMcrDAg4gZObRJBUslUChArIEW1ZLT/5JCiT/lCvl9RmosG6rvIadUmK3Qh56jTsVrntHWr1Sqq2RN2aiYkMPVFDd00QNYtW1UlWNlEyo6aFfKBg0VjXTLzUUh3DnRiXv+bFirL4u+Q+FVbWGt2ASDS7FUB7fsCK6CruSJEpw6623avPmzcYBE0mgBG5fDgtgwGoYp04VASti/o2zwfFHV8Qthao5b7akMQADQiQRCFbVVFAACnBY/GxpLIV2qO2ZuiinAg4Cq3SIlaRFKHkkkgAgQrjICjoV+nrsGAF/RBAgrgISmAvSOOhiWE5CocfWHlu7fQtnAQcQLEDI8A7ACMY381B7920Fj/9W/sAD5J18hVQ7IE1JNPsG8uvrVffjX6vi6WcVa0yZh1qid2+F049V1WUXyR89wlAVzfGCUOG29VJllbye/dMcyF2b1XT/jxXzqxS/+EtSJYShmOEhRBiOhbsb3Jm6hQVw1hAAb7/9dvOTlSOkNULN++IXWCdvQYGNBgAeSBWQisAxAj6izpLfiSogVUyKAiDAy7ZcxjnZDoulnAe3kQOiLVQx4HgBB6RwqBCBDEqpKbYGIFCFUeiqBntz27mEJwFxlXnD9swPaRCAmwMI3eJR0OpFOoAQAQhBGJh/8d8Y8qs7N6np1Ufl9Rqoqskz5MXjCmyFwjsbtfPL/6UeS1cq2bOXwmMPVaq+Xv7CZarYWafkyBGKf/JKVZ51qsJ4TKEXyg9hKZCIyGi+r3xJybt/Kn/CFMXO/Wf58tNVDC580OqN63bonAVwEjjz2267rXkVSRdAugFa0lpXhME7d1WF/7QFQ3R/BAQQOQBEQaoEHJDnt9/nRx991JAWSZ1AEGXV3pWgyKZ7aHYFQZVrIXpDcyrKILMjQ4W3rjtjV1ug2wKEaCljJmAgNTUq3LRFqcXLFCYbFKehTZ9eCisqJT8m+XGFMU+J515S4me/V9W2OtVNOVR9r/+q1LtXOurw3ntK3PGAglvvkPwKxa6+UBXTDpPXq5/Uo1aeH1O4e6cSz96lcOGz8gYOln/2vyg2bHwmapCuZHARhK7+apT3+a1jgxhIZQPhcBwGToswOCWF2U2PHHBN3xPRCAkcCqIFs2fPNpUXtsETZY0tNXgCkEEURIqZfhhd2QvDXgfXcN999xmuCekHIjqIZyHPnN2Lwt0D5f1cyL667gsQ0gjBOPUk8f7NW9R0+93SX+5RLEjI82ISpCpW+7aqgN09yQ9D+X36KvHBs9XjEx+RYnGJHvTJQH5tD3m7G9T46BNK3XSLKvttVmxMTKmKmMIwUODF5MdCU/WQHHyQKk67WrEh4zJVC1ZZoXvdhO5qu84CNpIAaY2qBfLkRBDgJOAkLB+gK1e6XWedls9sQ/SAK0oZUSvEyRIZIFVz+OGH71NgChDx17/+1bTcBiDYCENX2tfyQxDSQoYbfgmpH8iiRJQYY6GbTxXbnHfX8XRrgJBWOwgVQsD6xo9UOWe+NLi/Gg89SF5tLzXt2CbVNygWSKHvyUslFWtKKdm/t2qu/JDik4+QKgJpZ4MaH3hMTbvq1fPDH5RXXaWwoVGpP92q1L23KXb6oQpHD1IytduUQsZqByt+6HTFRh5m0g9oIFjZpe56I7rr7hoLRIlrNBqizwG5aVaSkBdxdjgzVpWlVE2QS2tmcyoABhA8bStteAVEBKgIIY8fXWVnr7ipDLn55ptNdQhpCNI68DF4RVM7hUzvRK+PVAO9O7g+QA9zDzeF6hKusxRKTXM59939WN0WIIANUjACqFbYsFENH/u8KjdsVvC5T6nqw5dIvmeIhQqJIJivqzzDUQjT5YikHNBIwuWvWqPG638k76CxqvzElfL795V2Nyj5h1uV+utdin32Y4pdeKb8mqrM/QbXgLLINCXSA3y4nEJ3/y52yfVHNRL4HbKhVVeEgEiYHAdBygGyXbQbYJcMuAtOil1wlgADSJ3PPfecSSegBwHhEjllXtkpmZacPFwFFA05Bit1AASqkOgRoBIJwOC4hYwoZAMgwMHcuXNNtQqVKwAXBJWOOOIIcw9E5a1dyqELbsgCnrLbAgRbiWCqCRqatPMTn1P10pXy/u+bqph+QnoKomRBs6OVUjZuPc0ToKIhCBRu2yavR43Uo1pKpBQsXKTUb/+i1JK3VPm1L8g/aZq8SPvXNBUyDQsACI50UMC73p3qfRaIAgWAwZtvvmlaF1uhJBwXK2RWyqgrRrdydRJWN4AqjS1btpgST4AB0RS4GoAm5IqjZZmt2YJjAhLgfNCvAaIoDhmwQPUAx8MZW2Go1o6X61vZVmMADJh/XpREUs5KVQYggchHe64512N0xyucBbovQMjwD4yDb0xoxzX/rOplq+T96nuqOOaotOPOAIQMNNgTTWhqUrhlqxKbtihsaDDRAK+iQrHe6BiECt5erfCR2QpeeFWaeqwqP3O1YgeOap5VeAxehs+QhgZO9KBwt7w7U0sWiK4ieZ+8NOVvENdwZmj4Ez0gJI6DiDLwC+3ECjWDRAvgGPCyokJoNuAos4GBHVNrtsgmOJJyQOqa1To/cczYl4ZKABArK12oa46OD1DAddPUC2IlaRFADGknxmdFrFq75kKN3Z0n9xbo5gDBMBAUJlLa+cX/Uo+nX1Tw1etUfckFzRUF1uQGWe9uUNOrb8h7c7G81e8ouW69kk27FQt9eZWVivXtZTx/uHytqYbwDj9E8Y9dofgRh8qrRHHRAYHc38LuiPmwgF1JAhRY6QISaEDE31EEJKSOAh/h8WwHUaoOIxsk4bAh7ZFaYMXMNbO6j1YndOZao1EbIgioLr7yyitGVwIQQu8Gcv8tpSryMefRY0bHhgokkQQaPgGabAMqSKzIbHdXbkq+56AYjt+NAUImPQBACELt/vlvVfnn29X0wfNU+++f3xsgkIPc8p6Sj81R6oFZ8pavUkAUoG9vxXpUK2WiEE1S3a50F8dBAxWbcpT8GacodugEeeQUjXxyMUy5G4OzQOsWyHaWrB6RWwYkEG7HYbKaJm9OEyeY7taRdcZptj6y/O0RvWaAEY6a6g7SLOThL7jgAsM52B8Jsb2jy44oAEogiq5cudKoTKKX0BIIa+95OrJ/dGxUtwASbbMn3iOKRMrpyCOPfF85ZEfO5z5TfBbovgDBKCuTPEgTFRsfekLef/2PUsccoR4//55EWaIhJoZKrVil5J33y3t8nlJNTYqdfYb8Yw6XAAgVVelSyERSYWOjvEDyeveUP2KYvH590ukHkIFp4+w2Z4HStIAt7SMUbqMJ5NKpkyeiQAtmgAKlfi0R7LoKNGQDnZaszz5UbRApgMVPzp1QP1wMwBDgiBV9vp21jdrY1tz8JM2A6iLCRbkEJu29Cy1R05JYiShA3IRQSZSDMdq0E/sWkmTZ3mtx+7fdAt0aIIAMqGRA4TC5aKmCj1yn8MARqvjND+QN7J8WPlq5Vok//lXe3GcV9KhW7IpLFTvjZMUGDTSkQ8NTtPa2v7SABLrqAdn2W8Ht6SywbwtYR8vKGsdJbhqgQO08yoGUwJGf5gVQ4BUV2emq+z87pw4IAADY1tKMnX3It/O7BQa2iRTh9AkTJphVMiv6KIM/1/dL1MZr16414kVwFPr162d4CQhY4ZBtpCbX59/f8aJjw4akndB/IDUCNwUSK/wUSIy2pXVXzXkh7VLu5+q2ACHdm4mOCqFZ9aOA2PDBa1QBV+Db/6HY8UcrfGedkjfdJu/hWQoHDZZ39WWqOHW61LNnuh7YFDK4uEC5f0nc9e2xgBXVwWEQdgYokHYgf84qnO8F6Qdb12+7MuJcWYVTAdFSOaBddebK1owTZ8/4cGaQLAE2jJHIBy8LAqIggvGTLmFVzIoY5wznwGoAFGJlbKM1jHnevHmGJAkwQLgIXgIVDnYrtBO2UQ4AFXwEUjBUd7BhJ4AMKpLRfg6FHmOu7iF3HCh1bYnBlaOlMgDBdFUEJCSS2nHdl9Vj4WIlP/RBVV40U4nf3Sx/zjwlB/ZX7GMfVuWMk+RV99jTL8GlDcrxznDXtB8LZD8ucLI4W1aSpB8ACzg2CyRwuLwABeTxWV3yb37H0UF0BDjY5k3RZlHZjsU6To5tzwuBjjQAL1bbgAJAANEA9uF3XhYM2EsjuoHzRwiItAiggBdAgLEROeBlqwgKGd6PEgRtuSGiTGzwPogk8LMQYCX7VojOP78DugAwjA+bM8+knFCUBCzYaIL7UpWmBcoXIFgAYGIENEhKN0rae70PxwD55HSr58Y77pf/vz9T0H+AUsMGKL54uYK+vaVPf0TVZ58lVVdmUgppDQTzBW3zvKcbQaWrKz0FnhFwft943ne4vaIUGc2FjECTnxFaal5NWEnoNo/J7egs0HEL2NWkPQKOm5UlTg2wwMqdUL5tDZ19JgseoiHp1hjx9pzRn7azZPZ47Plw+JALIdQRFWB1a52/dbL8bE0lsNAr4ehqHTvee++9RjcBUHX66acb0aKujCSYx1mmlTeRmgcffNAQO7ETEQ/KIRHZAvyxtTa3Hb8T3SfzZYGyBQjNSDfTxhndxIwskSEOpt9Pd06EQ2j6JGzdot1XfkHV69YpiPlKjRyh8OrLVHnOGfLjvnzUD9tdipCRcw5RSEhv8B5iRnMpzWBoHmsGbaTS7ZrkGxCR6fCY/jYaQqTpFR36/N8AnOZERwa05Otmccd1FmiLBaIrYPa3K35W+DgQXkQZEAgiTcH72SmGfQU2o04mSobD4RMVwBkRGSAnTlqD36PKhKVYkmntA0HwgQceMHaDFEq6wSobRuelq4AMZE40E+hYSVSJ+aHKhaZPzEVUhbPQY2zLfev2eb8FyhcgRIWQjCZySkruVJjarTDeS55fYzorpgsMvAwSDpV46TXV/fL38gf1V+2lF6ri2CPSlQgZMNGOkEHG2mmAkG4Tza8QHlIKG3ZJqQZ5TbsU7tqmEKDSc4C8il5SVY1UUaHQS5MgzRiRYALsZBQdoVeGqaTCVIPpGunHq+R76OWnAYPbnAW6ygJtzVqyH+F/QAJRB6IPdkXK36yT4TpwLhYE2BQAjh9QYNMW0VVqW6+9FBxVlCBIVOaxxx4TqRXAEKF8SJTk/7uKHBidb1I5qE3Onz/fCG0xv4zt1FNPNaAGTkp3lOtu6/1YbPuVL0AwjtS2Zg0VNG1XsPJupd6ZJX/wcfJHzFSs14HyYtXN+7E+N/0XmlKmrbPicdbvplFTczulFiIILT8QORar/XRqwTj3pgapfquCTW8rueAZhZtWKNZULz9ISqlGhRU1CoaMlT9puvyxx8oHMABiMqkDQ6oMAqPWmErsVLh+vpLvPqd4n7GKDTpaXp/R8uK99gIIe1VZtHL3lcLDsti+QG48nbNAW8FEW85SzvevXRzggNFIeOaZZ0wUhrw/OgmE8iEx2mhJR8BSW2y8v32ikSMADNEEtDMAf4AX1CdtPwfAXldGPTp7rd3l82UNEJq7NZoV+xYFG56X3p0tr26t1HO0vAPPltd7vLzqQZJfmVmxZxIB6QxEJm/W3K6pxRQD6Yk93aNTCndtlbauk7d7u5RKpFf/yaSSG1cqWPai/LotivXqq2TtYKma/g295W9dL79xp8K6TQoSKfmTZ8ib+iHFAAkZHYXmCALaDLvWKFj4G/nvvWq6QaYq+is2+ixpwNHyKvtLVX3k+ZXySKfYyEUz64ELA2ikm02l/5vRa+gud767zqKxQC5AQjmDgz0LnfSUsUig1JD23EuXLjUpB66fUD55f6IqXQkQ7I1lG1MBEhgjESKiCYwTkiWkUBtNKPf5K5ovWzsHUjIAIfoQacvNtCccn1LYuF2pNY9I8Ur5/Scp2PiStP5phbu3yOs9SrFBxyuoGSLF+8rvOTTjXCtgL+4pY8yE7ls6d0CUwDRtSioEBLz8gPTWiwqTjabzo3HBsLmresnrN0TJgWMUG3+ciRCkNq6SP3iUVNtH2rlJwfKX5b3yuMJd2xW75EvyRx9pnHyGKKEgk2II6jcqueJOeQ0b5QE0Nr0mr36Dwsre8vqOk9cXBccBCn3qpkN5YVKhYlIcQDJMfg2gqCLCy3BiTu387rjdnQUKboEoEZPfKTVEnhknzDZ9+nSjRxBdobfleZmPC2F8RDwgWNL8i1JYgA0b3ATGCWmUyhFHYMzHDHT+mCUBELJXGG254festlMKty9W6rWfyut3sLyJH5MXq1Rqy5vyNr8sbVuosO4dhbEqqaKfYv0PllczzDjSMNZLYc0w+b1GyYvXGkfdEkcRgEAUQVvWKvn03+SteEkaMlbhkIOliup0WSSiSr0Gyx9+kLw+Qw3ngBRDw6ybVHncuYoddFyabAhIeOJGpd56UfFLviJ/7DHy/Lh5by8OQuN7Sq15QGrapdiBFyrYuUba8rK8XasV1q1T2LgjTcD0Y4bTqDCZbjFd2Udhn4PkjzhD3sCj5HmV6bvIkDXbU5XR+ZvPHcFZwFmgfRbIfhbyb5wuKQecMN9hyIs4X6s30ZbnZftG0ba9oykHogmUQwISeAEc0MQg4gE3gVLXfIpQtW3Ebq9sCxQEIJhQ/96R+z08umYZwuyhZdodhoGSK1YbpUOvIi5//FhVjBqhMNM6uXmNn+W5jTPlpMndCt6drWDxn+WNPkf+uMsks6oOpFS9wm3LFW5bJL9pu9T0noLtyxU01klKmLSDV3uAvBGnyx8yXX4levOZ6gfb7tnwDpFablDylQek+bfJG3GovOmXyR881qQt0jLL6RV6xhenyYb125VY9YZiww6S32eIwjCl8O0XFc79iwKaQH3gy4odMCGDrrMAQt1apd78tXw1yjv0Wnm1o6WgXmH9RgU7V5o0ipfcIS9oMucMAQeJrSbVAoDQwCnyJ3xUXo9he43P0RvdQ8JZoHQsYBcN6EA899xzJu1Avn/GjBnG+RYDIdCOkZ9bt241QAZxJdIOgAJKUA855BAjTkX1SbTctKvATencAfkdacEAAty/dKg7m2Rv2f1mjZzWJEghSpBQsHGzEvPmy3vhVSXfXiE/Fpd38Fh5U4+VP+VoxYYNNeWHtlwxaioLEMKGzUot+YO87Uvkjf+E/CHHZ/ovJKWgMbN6jqdTBIkdCnesUtiwTWGqXl7Tdnnb3lSQbJQ/4SrFBh6TXoWnaxqaQY6pw965Rcn7fqRY3Sbp5KsUmzBNAhyk3XM6AmDaPKd1yvcApjRTQskmhWsWKHj+LmntUmnyGYoBMmr772k7Ha1iqFuj1Bu/lB82yjvsswbIKFmnsHGnITzKj8urIupRaY4fNmxSsOxWKbVb3u5NUmV/eRM/Lq/vIc0AJHpN+b3t3NGdBZwFcmGB6CqddMPs2bMNLwERKioHqHDoCkGl7Gdx9N8QK6nGIJIAUODfVDfQGRJuAhEFBKycyFIu7pDOHaMwAIH6fer+UwmlVq5W46o1CnY3mrC7X1kpLx43zZFM+d/6LfLXrpP/3naF27YoePNthX5M8dOmKQwSSj3zipE88g47RLHzZyo+9RgTWcgOjpsvDuetX63kKz+QX1EpjblYYWODvLpV8hLb5aUaFHpxhT0PlD/yjDS5L9it1I6V6WhBRU/p3blKLbtN3riLFRt1vjzy9iYSsGetbQDCjg1K3Ha9Yk07pOMuUuyQE+VV9ZASjQp2bVOwq85wIOL9B8urrlVo0ga+qXIItm9QatFT8pc+I21+R+How+VPv1ze0IPk4+htdMToIGSiMbveUWrRDfLqVigceJwUJuQltkqJemNHxSrlVQ5SqtdIxYZMMf9OrbxXatwubVssv3aIvAmfkt/7oDRwyQI9nbut3KedBZwFCmkBu0pHK4EeDkQUcLiABPL9XQ0Sorawug6IPtlW4vT1gMQIUCCiwJiJKqBy2ZqAVSHt3N3OVRCAgBNMLF+tht/foviKtxXs2CWvKZW+aWN+msiXES8KGxoU1u9WIh5TrF8fxU48QbFTTpA/lhB6oGDpCgVPPq3U3PnyDj9UFdd9QvHRI97Xk74ZIOxao+SrP5K/e4XCqgHym+oVJncrpbgUq5EXNMj3kkr1PVj+mIsVqxqsxBu/loZMU8XoMxSueUip5ffIP/hKxUaelTlPpugxgxHMDZ+oV/LFexU+c7filRUK+0B6jMtLJqWmenmJhjQoqOmtsLJGYUUPww9QKikRddiyVqFfofCQE+UfNVP+gFHyYmkSYYsAofE9BW/fIq26N51uScUVxGsNwdKPVSps2qGgcZPinLN2qILqkQor+8jbtUretrelUWfIH3+VvHhPAxB8W8jpcgzd7RngrrcMLBCNJKA/cM899xhuAiTAc889t7nLZjFcanSscBEACnTRJD1CCSdAgXJNoiCkHCiPJLLQVToPxWCzrhpDfgCCzf9n6v+TK1cr+Z0fy1v0loL+g6TjDpPXu5fUlJDX2CglE1IikV5RDx2k2MQJ0vCh8nv2kN+nt+peWaDqcSMVHz3GiAOl3l6h4Ma/KrVuvSq+dJ0qjjzsfQDBpAxYcSe2K7XybgUrHzYOMj5osvz+hyms6i9BTEzVK1j9sML1T8mv7Ktw2Az5AyZI/L5juYLld8nvMVT+hKvl9zk4Ezh4f4oBTgOVB8HyFxW8+phSG1YafQOcvqp7KlZTq2RDvfz6LYoFaCVm0g5oG/hxBSMmK3bUGfLhL9T0lYz+QSYDkokg2LSJUYYOGhS8M1vJRX+S3/9g+cNPl9dzhLwYvSJ8KWhS0Lhe4foXFLzztGKp7QpicdO/0u81Sd7Ea+T3PyRtc5s0abdKZFfdtu68zgLOAi1ZwEYScLR33HGH2WXy5MlGmrmYHGy0GoMxAhSQ5KaLJVUZAAYWXowZMiPy2Og80FWTKEN0czyF/H0X8gIQjGO2fINA2v3bPyr+p9uVPHmKKq/9mLw+fdORA1MemPa5YZDJxVfE5FVWSrD+cZKNjdr0xa+p+tSTVXPp+fLDlFKvLVTqFzfSqFkVX7xWFZPGv1+fIANSAhQUm+ql5HaJdAIr91i1PCHUwZlZ/e80FQCpN26Qpx3yqkYqRCegYbvCqn7y4B8MSofp7bYXByGTzuBYKSIC9dvlNe6Sx/XhrCuqTSVCmEooTMAB2K6wYafCRKO8eJWpblCvQVJNr3TUwPAc9mQxbPokjbwBPhlFRjgHkA4raiXKG/1K+Rn1xfQXMGH4E17jJoW7VijctkJeVT/5A46Q13OUIWG6L1r+vlzuyM4ChbaAXZ2jYPjss8+abpA4WMofAQrFUinQkvaFLYtEspneDkg209MD8AAIoHQT7QR4FShI2nbiDiDk7y7LE0BId0hMe7JAyQWLFH7uG0pec5mqr7ysZSFg62STgVk9BzHrFpMKt9XJq6pS2NioxONPKrj1XvkbN0sfOl9VH/+w/J493wcQ7Gob3QDcLXqGvimMiLIVUhnLUgrYJO1areRrv1C4E95DrfzBkxUfe7HU6yB5XnyfvRhMHwchE5tWXuRftrrCFmmkWQtUImSaNln7ZESQ0mBljxZByze9lVpOVzSktwywyjSksuWK6RSLHQm7pczLXL8XN8DFwBAXNcjft8sd2VmgiyzA6pvQPb0byPOjNXDooYfq+OOPN2JF6a++rarq+rxiNO1gnmoZGW7SJHQIfe211wyZkQ2QQ+qBa5k4caITW8rjPZY3gGBcU6ajYsMT8+R/83sKrvmIqq7+sPGDxjnhLDPVCo2PPang0dnyNm2SqquVnDxe/ugx8uPVSry3Wd6y5YqtWq2KunoFvfsoOFHA9ksAACAASURBVG+Gqv/xIvmDBmXq9/e+yS0HwUCD5qoB64RNd4SMWa0YsWeKJ2KUBQa70+RFn/4GkAkz/RCyyIl2XgAhNmFgF/4tV2+iWGhbNO2Z1XRcAC1D03h6n3oEGfFoiwsy1RHpclBz/mblR9N9itIIhSKtsOeTabunz7dn/zzeYe7QzgLOAgW3gA3hU1ZI7wZSDoAGHOu0adNMK2YbTSjmFbi9DsAB1RlPPvmkSUVwLYwfgED7a0dmzM8tljeA0CxzHIZqfPoFxb5yvZLnn67qL1+XLvHbsVPBsrfVOOspifd31imsrVaqRw/FG5KK7W4Q6QG76ofwl+pVq2DyJFV+4BzFJo2XV1mVXnRnnF3URHvW1Rk9Beu5Mw4y6p6tskHay+4RbDAyxNG2zPsACM3oN+OImysCMiv8PafMIHYzlnQ1goUWzV7faia0MN/Wze/VXyGNLtJRGY5px9iMUPhbxAaZmMNelQv5ubfcUZ0FnAW6yALRFTkOlXD9ggULTF8EognIHRNRIGxf7AAhakIiCtFr4T06WpJyoJ03/ARbsVHM19VFt0W7T5s3gGBdn5EG3rhRjZ/6gtE3qP7tT5TaukWpux9SMGu+YjFPweAB8o49WhVnniRvxHCFdTuVWL5G2rhJYSIpr28fxYYNMboH6tvbVAdYR2jD5C5S3u65dx9wFnAWKGMLREEClQGrVq0yvAQIgLTBproBBcNiSjW0Nh1EDrgW2zGS1uGoNAJ0IDAeffTR5tpsaaQDCa1ZdP/v5w0g2AiCqaELUtr1g18ofsfD8j90XloVcdU78iYdLO/UqaqYery8QQNMi+NmBSHLGzDySel0wF5aB5kVOMmKNGLsnCHcp50FnAWcBcrJAtlEQP5NqoEwPf0Rjj32WJ1wwgmGxFhMOgn7mwN7TQAFOkbCTVi0aJEp6eQa6BYJSKDDJSAhW0OhnOa3ENeSH4Bg2xubGHrarSfeWKjk//5MsbXrFfbrI506XRWXnC9/+JA9DY2MJHD6spvBQGjqDEyVvg3/G7Kf2WuP7HFnAUJa6HGfus+ZuXBApBA3pTuHs4CzQO4tgHNl9Y0kMy82+AikGixIsGct5pV3NDJCtcZbb71l0g6IRLHBr6AXBdER27SqmK8n9zOduyPmBSCkfe1elDrT7jixcImCV96QN3K4qqYcLdXWZPoA2AuK6jAb4eVMxcP79JmjNYAZQNE5ozSXEO5VYxEFDGnI4m60ztnZfdpZwFmgayxgn8mbNm3S/PnzTfMknmf0bEC1cMSIEUZ3wCzQOrviyuMlZkdGiCYQGXn++edNWSSggQgC0QRElrLBTx6HVnaHzhtAiFqqWRTDEOpSaW2AFhoYdaV109oNVF6kawmiW7OwcqbjYVeO053bWcBZwFmgMxbAoZJiQJAIkECFALLMBx98sOmDgNRxKfESrH4CCpK0veaaIGNWVlYa8EOVQ21tbdEDn87Mab4+W0CAYMsKAQfNdQPNkYCuBqzmJkMy+Z131bRqjYkWxAYNUHzoYHnoLCDa5LgO+boP3XGdBZwFCmQBu2Ajh48zRWeARk+UDdoeCJQP4mCLOZLQHHe20eowNLwE+jqQcuCaiIhMmTLFgIRir9go0PS36zQFAwhG+jhdi5cJ4u9hFWb+3K6B72/nvdIb3DwGkKDcGNEFsiWGtmZwd4N2P/yEYk89o2Dd+nSEo29veUMHS8cfo9gJxynGv5sH6/gIOZswdyBnAWeBglkgmsMnekBYnhdtmBFXQlOAlTch+lLjJliBpeXLl+uJJ54wgIHowVlnnWU0E0opMlKwG2I/JyoMQGAAaRZgZCj5BQgmZbCrXrvnzJO271TFuANVMfIAefEK0/QpDVhCqalJjUvelvf4k/JefUOJiirFTpsuv7JKwfIVCpe8LVXFFfvwJYqfe6b82hrXHrkY7lw3BmcBZ4EOWaClHD5AgQ6QrLxpmkSzJDgJ5PBJPZQC2S96XcgzEx2hsyUpleHDh+vSSy91qYZ23jEFAQjtHFOnd7chtNSKVar/0jdVuW27vNpahTWIaEieyXakKyz8VKCgrk6J+h0Kjz5C1dd8WN7oEZIXU7hrt4JFSxTe9HelelQp/s8fV8WhE/eIM6VVmtzmLOAs4CxQshbAgdpt+/bthpsAUMDJIstMNAGNAX4vhRW4BQqAnvvvv1+LFy824lDnn3++EVMqlZLOYrihyhIgYFhz0zc0Gs0FogDJF15W+M47ChMphfF0e2lDlqypVmzkAYqfdor8w8ZLffsqjHmKZXomhNvrlPzNTWqa95wqv/RZVZx8QjPBshTyc8Vwk7kxOAs4CxSvBbIjCrt37zZCRC+88IJJPcBFsH0cSD8Uu4ONplBINfztb38z1zB16lRT1lns4y+mO6UsAYLtw2ASGhAPm5rUNGeemh59QlUzZ6ji+OPk+Zmlv+8bZcawMm7+RmFlsHGTdt1yl2KjDlCPs05T6oablJg117SWjp88LdO0qWOlQFRIGOxhyAzmbOZ+SHdpSP+0yRijnMw/HDky59+Z5sqa/RyZcilymJs3bzZCLKxI7MMHSVcIUMjY8vAhhDl06NBmYpcDjzmfMnfAAljAfi9YYHFvv/7660YzgX/THAlxJVbjpRJJoDPkr371KxMNgYNAFMG2vS6AOUv+FGUJEKyDNc44DOU1JZW45xElfvkHxS+7UBVXXyavR7XRatzjlNMNjoxu47adapw9T37/fopPGKfkL36vphUrVfWvn1H82CObm0N1pPKCMSE/7ZlzRVIUtgVEprGUKbVs7jOxl4Zkyd90xXAB0VUGucpZs2YZNjcPP+RbKZfiJ6StKDCwY4+uunhYwgBH4vXUU0/VL3/5S1OH7TZngVK1gAUKyBijmUA0AVXCM844w/ASSoWTwHXceOON5ruMcNIll1yyV6qkVOenUOMuX4CQaR+N30WJMfn8y0r++NeKjx2t2GeuVmzkiPRKPZGU6usV7tolb+sOhcmEFHjy/NCIOyVfeFWpux5U7LRpil9zhfwhg8znOhqmMl88OJI0geL3VEphXb20c6e0oy4NWIYMkNe/v/xYbE/Fh+M65OQ7EY0coCpHSdS3v/1t3XbbbWZlQWSAPvM4fH4SUu3fv39zi1w+Y+uu+Z0XIIJIAysuSqs4xle/+lVdddVVpnueW7HkZOrcQQpogSiAhrz41FNPGcVCgAGNngAJtgyyWKNl9hrmzJljQA7fZQAOSovFOuYCTnGbTlXWAGHPKi9UsGiZUj//ncIgpdg/f1zxieOV2vyegsVL1PTwHIULFsrfUZduuZyWTJTnxYwMdDB2jOLXXK74CcfI843oc+b9Nnjt5o6NzWvPtKJzECq1ZZPCxcvU9Mgc6dVF8up3GqEmzTg5fb4Dhu1pZd2GU7Vpxrv5TtEQKlGCr3/963rooYeMOAy69Dz8KO+iHrx3794momDb4mabzt5fhC8RZuEB+sMf/tA8THmonnTSSfrWt76lSZMmGZBhgWU3nwJ3+SVkAft9gYuAk4WbQCTh9NNPN+qLgOHsrdicL9GDP//5zwbMQ7gEJJRCBKQYbpOyBggY2ITziSCsfkfBb/6kYPkq+dderdjgQWq66TaFz72oynilgsGDlBjQT16PyrR4k+/Jq6yQN2So4iedoNj4MfJojZruk9z2hz1RAl4ZUEH4AKJkCuLknfcofOp5+VVVCocPVdi3l/yVa5VMJlTxb9epctqx8jLNqFy1RG6+LtHQ6S233KJPfvKTBgSw4r/22msNKGjLxkMwm9zF5wAKHJe8J01kSDtcffXVJpowZswYs+pym7NAqVggGkmgCyTdIFesWGEWLgBgVuN8ZwANxcpLIE1CuSOpREo36WJJCrCjUeBSmbtcjLNsAYLROTCkPxy0FG7druRNtyr10OPyZ5wkbXhPeuUNhRPGyj9lquLTpqQ7SvpEDbyMthJggFdGGroDZEHrkGw3ibBul1LPv6zGP96q2Np3paMOk3/yNMWnHiNRcvnbv6jhxVdV8eXrVHXi8S6CkIu7PHKMbIDw6U9/2jzorr/+ehNB6Mzqp3muw9CUVv3gBz8wq661a9eaFdfnPve5vbrn5fjS3OGcBfJmAXtvsxrnnl66dKk5F2WDkP/69OljQviIEmV3UOzMdyoXF0TkgK6PDz/8sAYNGqQZM2YYsO4AQuvWLVuAkEa+mZU7v9IsatZTSv3mJvmbtiioqpROm6aKKy6Vj4AS+f7MqnBPj8hMw6lIh8n23uxRgBBu36Hk3Q8pdfPf5ddUS+edoYrzz5Y3ZJA5d/L1N5X6xe8NYzj++U+p4vBJEXlnl2No/XZufQ87HzR3+c///E898MAD+q//+i999rOfNeIw7Z3f7DNGowpwEyA//ulPf9Ls2bONzv2//du/6QMf+IBRqHObs0CpWCAaSaDZE6RFQAIlkaTgAAiQAFmh8zO6Qu/sd6qzNiIFCGC/++67mwEC38V0UNc9V/dn3/IFCJn4gf2BEVIbNis1a67ChW8pPGCoKs6bIX/EcBMxsM2joj0o7a2T/lvHujk2A4QgUNM9Dym84S/SwH6KXX6J4idPkXrWpvs8NDYqcdeDSv7hFsXPOk2xqy+XP6B/OoBhbmJ3I3f2QWEfcpQvPvroo/roRz+qCRMm6Cc/+Ykp38rlisLOO6sXuAk//vGPdeedd5qQ7De/+U2TB90Xt6Gz1+k+7yyQLwtYUSXKfrmvAQs0fuIn75GuGzlypA466KBmHk9LTriQjhmAQLnmgw8+aJpSnX322eanAwit3yVlDhD2VncOg0CpujqFO3fJ71mrWC+aMPmZnSJO2PRuiG5ZstCt27V5DxwFPIhw23Y1/fv10rLlin3zS4pNOEiN9z4ib9wYVZ16goI17yq44U+mHXbs2msUm3mavDhVDLbngwMI7TB7i7tap03feKIGcAU+/vGP63//939NxUIuHxjRSAIPTvKf3/ve93THHXcYIuR3v/tdHXPMMW4F09lJdZ8vqAWi9zW/w7kh7bBhwwbRTZHIHDl/eAmE8RFYggCcXfFQSIDAgoC0yLx588yYzjvvvOZSx0KOo6ATlaOTlS1AyLaPvbEpecxIDOR0xbiv+WheSa5YpfAL31JDbYV6/eEXCrZv164f/j/FjjxCNZdeoMRTTyv109/KHzdOsWs/Kn/cmHRgw4ghOHCQi/vdlifSN/6iiy4yqwh4AmeeeWbeHHW0auLll182wOTJJ5/UN77xDV133XUu1ZCLiXXH6DIL2PubVTqlvhAYIecCFijvJedPBQ/VDvATSK0BHkhJIN1MFK0tW2ccOYAFYE4lBlUMfN9t6XFnjtuWcZf6Pt0IIDBVGU5CZtbS1Yz5db7pL1Cg5PyXFP73j9Vw6Hj1+p9vSKmUkuvelVdTI9/zlPjdTUrNelqxKy9XxWUXSlUV6fSCqWIwa9tSv9e6fPx2xfOHP/xBX/ziF03zlhtuuGEvZbhcDzK64mIlQ6oBQiQA5X/+539MvtZtzgKlaoHsSh5ExdACoTMkZcQoGfKMhbgIGKC8kGgCLwADKQleUdDA34noRdszd+Y5DTBAbhmO0WmnnWaiGnbrzHFLdc7aM+7uAxDS+GDvLQ+9lrJPYaopUint/t2f5d16n7yrL1XVVf+QbkEdeua94MVXlfj2j+SNHqX4dR9TbNL4yA3sOAjtuaH3ty8PM1Y5X/va1/SXv/xF//RP/2ScdC65B/uLJJFq+NGPfmS0Ea688krzk/Cr25wFysEC0SoeyIvwEnDOlEciVw5YINIQdc4AB1bzvAAQFkQADog6UBmBhDlAmt/Zb1+bdfZ2HOwHYLnrrrtMZINjQBAmeuGAQdvuuO4FEN6PD9pmpXbs1RJACHbuUuN//rcRY6r6yXcVm7wHwQY7dqrpljsV/O0u+ZdfouqrL5eqqvY6o4sgtGMC9rMrDw5WN5QbQlj6l3/5FxPqZ8v3A8NwUYLAABKUGxnDf/zHfxidBLc5C5SDBbKjCdzvkHSJnBHmBzQAEiA4wlmg/JffrTpp1AYWtAMgAAu8iCwQaQAwUIVA+iKaosgGCBwbMjJqqeyHDPrRRx+9l2ZDOdg9n9fQbQBCPo0YPfZeACEjkpRatESJ63+sZNxXzfe/q/iQQelkB05j7buq//YPVEEo7rpPqmJqbtn0hbruUjgPDzAUDsn98+DASVuAkO/xW/4DAOE73/mOKXf88pe/bFYz+dqyH9jZ59mX2FNL48k3gMqXDdxxu84C2fdfNMJgwQPAoaGhwciU88KpE+UDyPPiPQvg+bxNV5CigMNAOSVRuCifgc8QuVi1apU5JiADNdOzzjqr6OWhu262Wj6zAwh5mhHz5QAtpAI13ny7wpv/Lu/8s1TxsX+U37OXAQd0mkwtWKyGL3xdseOOUPxLn1WsWeErTwPr5oeFcf2pT33KyCEDECANFmKzAOG///u/DUAgzQEPggdbvjb7gOYhTJgXciSd+Vi58RC2JWs8dCGPIZ1L+SUlnzx47eqsECmYfNnAHbe4LdASiLXRNtIDAAZSFVRHQHzcunXrXmmKtlwdUQO4B7nQOWnL+cppHwcQcjybFhgEiYTC9RvV9Nhs6d5HFCZTqvzOVxSbPEmKVaQJkzT7mTtfwde/L//isxX//KeleIVpJ51n7mSOr7o0Dsfc8JAhD4nDJMRPmiGfW3P1TBAY4haA5N5779VPf/pToeKYS+ll+2Cl9IycK2mU+++/X8uXL9f27dvNZdpGVNlOH7DAA5kXwIB87YUXXmjIlAceeKAhkvGAjWo32KiCiy7k8w4q72O3FuWKXj33KPc2kYVly5aZKAERAlIU2RtcBdtfhXvZqju6e7V995MDCO2zV6t724d0YtESJW/8i2LPviLJly4/XxVX/oP8vn0yBQmhVLdbjbfcLt18l8KrL1f1R/8hnQt3AKFVO3dkB+YGx3niiScaR/n973/fVDLkY4s++Pgd7QX0FmgFTS71N7/5jS677LJOcx+i5yFSABhAd/53v/udyfPaTpR0lTzyyCNNdGD48OEmYmAJXxyDBy3KeGjto9lApIV0DA/lKVOm6Pjjjzcd/KJNrEiPRI9j7egewvm4o9wxsYCNenHPAgwstwGeg01BAGJtdYS9x9092bH7xwGEjtltn58yebZUQg2z5yl1232K79wlbd4q77ij5F96vjRxnGI9qkz6IVy2XI3f+IFijUnpS9eq8oSj04qNpueDK2vM8dSYB8jChQsNUYlwOhLIdG7Mx2YdNz/JiXIupJ1ZyZMLRSjpqKOO6vQ888DkHEREnn76aQM8XnnlFRMBIKx6ySWXGLVIgAKgKHpftcRBgGUOkQwgRZdLpKItmYzVGw9ciJXo70+bNs2Ah4MPPrhFMZx82NUds3tboD0Rh6il3PO0Y/eNAwgds9v+AQLkw+07FGx6T+F7WxTcdo/0/KsKDhyligvPkiZPlOdXKHX3Awrue1zh2aep+nOflGprjNqBAQhO9yDHMwPtIzTOEwXD6dOnm/InVtZsnXmA7OuhZUlZ1IOTyuDckydPNtwDOspZdbn2XGj2uYgSvPrqq7rttttM6oLoBMDgiiuuMA6clVR7ri96fMAH5WmMn6gCEQaACJEFcsFEGbAbwjMf/OAHTSMqgEg2CGnP9bl9nQWcBYrHAg4g5Hgu0tUJHDTd8gmdg+QbixU+OEvB088amedw3Cj5PWoU8vdJ41VhtA8mprtMNzsrF0HI8dQYgIAzBSAQbkcwCWW1zkZsLBDAoaJLTwifnKdNLVC5QMj/nHPOMbwHQEJH+9Hbc+GokY+dM2eOAQaEWmfOnGnOwU8LfNob9t/fCo3r4zyAg9WrVxt9e1ISED6JLMBXgN/B9QFMOmvXXM+/O56zgLNA+yzQpQAh+jDqzAqufZdc2L3NAz0IFWzepNQzLyp4eYG8JW8rTCWliQfJO+cMVUw5WkIAxAvlG+VEBw7yMUuWgwD5DrLi1VdfrX/91381Heja60gNBDQdQ9MboXlKJ++55x594QtfMGF30gk///nP9X//93+meQ1pBSvr3N45tufCQc+dO1d///vf9cgjjxjCFpUH9HfAQdMox8rI5suG9toBDEQRqMwgtUFEBK4Cra1Jo5BCiVZC5GM87pjOAs4C+bNA0QAELrG9D838mSV3RzYAIdNSMkwECjduVLBytcJUKI0eoYrhw6R4rFkEOl3B4ABC7mZgz5GYC/LrN998s77+9a+bVTwdHakmwLG2d8UbjRwADnCURChohUuZ4M9+9jPdeOONxkmit0DYv6NNoTgXBESiBbfeeqsJ+9OV7pRTTjH97QEkNiqRz+9SdoSBf0P2pEMlEraQHUlLAA4uv/xyfehDH3LKdfm4md0xnQUKYIEOA4S9HhRGNTjMZM094+zSvRH53Tyump1kRmFYXnKXgu3LFNStlcJAqqiV32ecvNoD5Hn0Icitk0wv9vbWOUwnATKb2SEzXq4FGWTT1YlryVxNB8aUBgiRc2fGEW0hbQ4fpkeyp71zAWa/zE7RkvNiZc9KntA/JDubV7/pppuMs4VwRzXBJz/5SSOmYsuh2mIajkWon3LCP/7xjwYcEJ3geBybEkOcNvwDZJ05V0fuaxTonnjiCQNsSCkgOYtUM+F8IhMd4TK05fpa28cCJFIoAASEn6iSIO0AMIIPgXodUZpcpHJaG49731nAWSC3FugwQAhC0xcx3VLA/BbIU7oeNVRcHivhZvfrmYZFId4vCKSGdQpXP6pw0wsKm3ak/bZfIa/3OPkHXy6vz8HyPFod525LP8yC9AE9nL/xymb85meqSWHdNiW2b1CYSMqv7anYwJHy4lVmf/u/9goU7MEl7xNhzrq49HjSw8vllefOhsV+pGgYnhX27NmzDbEOcEAo3pZCsR+gAaY+Th6HC2mR8Djs/1GjRpkVuSX4cd222Qy/79y506zg6Qr54osvGmBAygIwwiqan8i7cj6ODXkP1j/dIzkm5VnoDXBunDvnI2+PhCxO1YIU3meMVEAAOKj7hl/w4Q9/WCeddJKRne1KLQLsyHUgHQ1IIJ3ysY99zNj28ccfFyCMOSDlcPvtt5uSSHdvF/u3yI3PWWCPBToMEELKq2x/xFSjgi2vKnx3nrxkncKq/gprhsmL15ia/uYXn9n9rvz33pTqViroPUaxoVOleE9p22KFG16Sxl6s2MizzGdzyeTnYRZkVvMmHpDx3MGOjUq99ay0aqG0fZ38xm1SEFPYZ4i8qZfKG5eRPrZxBOe8i+r7Y0EBPyknJLzPSpve7zZqgKO2mu5RB4Ujt6DB1k4jBkQagBr/aMjeNpXh4jkPgANHyOp+/PjxZqUMWKDVLQDCbhzDcgIAA/xu7kWAcgZ42PMBJuBDUDr4mc98xnANCN9T/UCpIgqQ5PYBElawqCsdLtdB2Siy0dgdjQeqGRgTdkX7gUjHSy+9ZMDDNddc4wBCUX173GCcBfZvgY4DBCICoZRi9V2/Qaklv5e36Vl5QSodqPczwKA5DhDIC+MKw5SCeE95/SYqjNXKGzJF/uApCje/pGDpzfKHnaTY6AukityuNvZwAdLjDndvU2rBE/IWPCl/2zoFQVJhj37yeg2Q1q+QV1Wp4LgLVTH1MoWxeHMEweGD4vlK2RA3eW9WrHRoxEkjzWpX8xD40D2AY8Dq3a7O7eqXlT8ODJVDmPk4Ncr4WBnva8MB4syphoAYCDjAaTOOX/ziF/rBD35g9BXo+YBjZyMSgFwsjhOgQKc6fnKexYsXmygE5wZcoNGA4iJpCa4DngT8hTFjxrSoZdBVM4INKRUFuFBaSSSBSIndeJ/5sHoJttqhq8brzuss4CzQPgt0DiBwLpNdaFK4a4WCVQ9I21bKG3KswqqeQm7Y8wAMnhT6xtH6Fb3k9RonJerV9PZd8occrYqRMxQuv0vJtY8rNvEqxYacZHQCOpVjyEQLiHN44r++PIMMQgUbVyn17O3ylz8nr7FBQUW1vJn/JH/kEQriMXmLn1Jqzl/lDRsjf+Zn5A88MD0UkzZxW1dYIBopwEHjOGnGQp/3u+++2zhZOAasrKdOnWqIhzhuIgH8bV/cAts0huMR+rfRAfQFcN6ci314cQxeAA0AAd3kotLFjPGtt97S73//e0McxNFTbggQsMewtmspksG5iUowFkoIP/GJT5gV+A9/+MNmHfn2EinzMVd2LrAX3AuiHZA+0XeIpmUYK/sAprAV0ZWOkjTzcR3umM4CzgJ5iiBED2tCpjtWKLX0twYsxMZ/Ul7v8ZIHL6E5sy7Pa1JgiAvxNBeBvL8fl3ZvkBb9TqQtvImfkN9nTEYsqBPTl6keyLAO0jRJHvTvLFH41E3yVr2pcOAohTW95G1er9jV31PYe4j8XdsU1m9T4rHfqGJ3ncIzPq7YgXsUDjsxIvfRTljARgtwnkQLcJo0HqIqgY2mR4TfWXXDJSCX35b8fBR4cBzKCHHSRBNIH0AsRNeAqoTszR7fpgwAKRD1HnvsMePkiRLgGFlBQ9SzrWb3ZwZ7nYyDSAY8A17Fstnx4fiJCJBeAMx861vfMtfIhvIivArbHAd5Zj5HpAZ7GKztQnHFMqVuHM4C+7RAhyMIex0RgLDlNaXevEHqPUL++I9KPYamoUGySWHTZoXr50vr5isIE/KqB0i9RsmrHigvVqlwy2vS1qXyD7pU3vDT0/yDTj5AmhnthkQZKCSFsPJ1BfNuljavlsZNkX8SvQ8qlNr6rvzRh0rbt6jpju9KQw5SbMNSxSpr5M38tPxhhImd/HEhv0dRx01YHqdNnhtgQFdCnA/RARoJweYn1D9u3Li9eAMtrdbt36KOmNC/bWxEExjbo97uSwSAlAHkwAsuuMA4OSIJVqqYY1FlQEqBqMbgwYPN2DgOUQHSBoAF8vNUNBBZsBrx2TbNrsTIpTPNBkNRgMN7gBKiMIAuxJBImQB0IvjRpQAAIABJREFU2AAE8C4gX8I7IBqAuiL7c5yxY8fqJz/5iWmiQ4qFkk+qOeBgUOoIn4JoD1GdXF5TIe9Jdy5nge5mgZwABPOw3famUgt/Ky9eK2/CNVLtSHkNG5WiUmHtLKlhrbyKwQpiPeSndsoLGqUwaUL/YaxSGjJdsdEXygdYpGv92h3O36NimJ5G+2+qF4Itq6V5tyhY8Yo08STFplwsr/+w9LlMfMGTdm9T8pm/m5SEXnlU3kHHKXb2tfKrenV4TN3thsrF9VpHRlieVTR5bFQPEQYCLFBpgKP5yEc+YhQRLZu/LaAy6oBxgA8//LBpooTGAE6diAFpAciCRCFwlLxHOSMgBe0BiINwGtgYIwAD0SUiGueff755H5BgP4sM8gMPPGC4EThLNBFwqPl2lFFAgCOnxTOAxVZQRN/HFgsWLDBllJAi4Wawb3Rjf0vmxDb8m+OSNsA2dKhElwEgxUakh7nBvt/73veMXSgnzfd15+IedMdwFnAWgMzf0pKlnZYxIdb6DQqX/UXh5tfkHXiB1GOgwtWPK9yxWKoeKA2eKn/EafIqahQ27lTYtN3wELwgKVX1kddrtLyKvnsiBx0BCACB5tLFTHIjmVBq11aFb8xS+NL98odPkHfiFfKHjk3zEjIFjwpTSjXultYtVuqpW+XXbVQ49R8UP+qcDDhIt2BuP2xppzG7+e72dsTxsFqlxO+WW24xzg1gAMP/85//vAEGVqXPmqw9AAEnSSrgK1/5inFyViaY1T1OjagBUQIAABEAohc4QGr8P/vZzxrJZPahUgKHz+oYgh7lfITUoxupCgACq2quCTIfqZB896fHljh+VvWkA3hBliQSQLTAbuzHGIkcMCb6KcAb4HfLuwAEEAWBewHxks6OgIivfe1rBrQRaSByAGg777zzDBiieRSgC+LmV7/6VXP92M4BhG7+JXeXXzIWyBlACIMmpd6dq3DpX+QHtN4MJN9TMOAoxUaeY7QNDEkRsqKHJoFH7CBD/jOPjM6H8cNAKYiIRm8hpXDrOundtxSuXqCQyEG8Sv70f5A38aS0tDFjrN+hcMdGaecmaeMKhYuekeq2KJx4UjoF0XNAcwMlq4dQMrNbIgONYlRC2Thd0gh//vOfTbkiq3F0Cv7xH//RSArbevq2AIJsE9jUAqt+iHWEvv/93//dODZ4DNm8hWg0g94HEAeJHiCfDCD41a9+ZVbIOFUcJDX/AIeo8+UYrMZ//etfG0Ehoh/f+c53jPZBR66htWm1Y0YGGWByww03mKgA5wL8cJ3RMQICAANETrgmQBh6DlwTIIx0CO/zipZtArAgUdqIBNePTgOpBT5L5ATSIhUZlEACsNjfAYTWZtC97yxQHBbIHUAgzdCwUcHaRxVufkFerKeJGsSGnqCwckBmFZ5WKMxoBu5RNozwDTrzwLQPf6PPsG6RUs/fJa1ckM4iDDhA3oQT5R96qlTTW2FDncJ1SxSuXCCtXaBw67vykgmp3xB5I4+Ujjlbfv+RGQCT0VLMpCOKY+rKZxS2ZTEODfEhwv733XefyeFD7AMYwDMAKETvj47cK9wjgBDaGFM6iEMjd27Jc9nRiGgYnnQH8sk0XqJ1M5+Fd8BKGeeHtLBtUhQFCPZ3ohCsuAEaRCDgI+SDgIg9IVkCsAAHVGQARrAlAlAINgGybGUHP1npQywkQgAIaIttSSEArIg+cE4AF9dPKgE+CNdItALbAMhQlqQ01AGE8vnuuispbwvkDCCYjD+r98ROBVQlxHvIrx5sFBJNnICUQWZ1nxYpiuoc54bVbLoeUCbRtEtNd39f/po3pNFHSGOOkjd8vPwBI6TKGoW7dyh8c7bClx+SV/eeNGikNGC0vH4HKBw2TrEhB0k94B00uwuXXsjh9yA7q0W4m4jBHXfcYRw3EQQcDPl8cvZIIFs54bY4rv0NlXOTMsDJ48hIMZCy2N9xLfAkjH7nnXcawR9SBKQSiARQPXH99debf++rDJFjsNImXUKKgXA9SoP0LOhs6WLUnjhq1CMRJiLdwZghVn784x8354pWd+zPTq3Zg8+ikohGA/PFGJBZJrUAICHaQEoI9UeiJ8wh0RrO7wBCDr9M7lDOAnm0QE4AAtoCrQkJp/GA7clgAcKeWEIurrE5grBjgxK/vU6xHrXyPvBFeUMnyIsBVGi7l1Sw+GmFz9ymMNkk/9BTDIj4/+2dCdyVY/rHb8kyY8/YMkSWEhEiUtYh1YylkLUsZWvSKDHGNJYyaESkVNaKRlkiiYoZCmloMAhF2cVYs/wZhv/ne81czeM4b+c55z3Lc57ze+bzft7X+z7nfu77dz/T9buv5Xc1aLRxaPDTNUNYcaUIc/lfkaZxnLzTJouxqvSNETVoGGsSEBE5IkkOo0IiIEaX8kDKC+vrNYgiyLMpw6Mkj4oDTrfoJsQxiHwWI4fGAqJFGHmqF6677jrLYVheC2d/N4nbc7LG/U5pIESD03t9iI/jCdEioRN3PlUZGGmSJwmLMN/Mygmvwsj2hsXBg2oGyjp5Fsmd7B2y0pSF8jdCGeCFZ6J79+72VV8ylL7/N2hFQiC5CBSHICRkffaPMDTgy6XhXzf8JqwYvgnhoLNCg01a/pecfBe+W/Jq+J5Sx3cWhrBbl9Cg5S9CA/MWkIS4Yr6tFhKy8uqYRuZJ99lnnzXjSotkMv5x2eOyRscgKidcrNW5kcZ40VSJhETc8LmaKEXDDJyW6TtAR0UMLl8kUiKMFMeocsKfMGGCkQO8IpzyOV0XShBcshlXPh4JlA0hCYRM6IuA5wDDXQrDTFIj4RW+yMug5JTmUYRN8CJAoMCa3AZyGjLDL8XaV40jBIRAaRBIHUGgaVT493fh65nXhob/eCj8e9s9w4p7HhfCT9YM37//WvjuqXvDCq8+Gb5vsn1osHeP0GDtjf77j/MKYQVq20uDs0YlL8QaZn1vbmhO0HxhzDCUGDIMGn0NStW22KptvvvOyhHxUJDXgHH3Xgm5QhP8nYx9vB3kD1D9gPFFTZDkxDgEgTGQVO7bt68Zc8INffr0sZyAQi7W45URhGfI4yDREHXDQw891PINzHtXT12RbHMDT9dOgAzEqcooxTwKwU2fEQJCIDcCqSMIFDqSCPndkpfCv+8cEhp8vTSE9bcMgeZLH70dvvvw9fD9RluFBm27hRU3aRG+p4vkf3ESQcj9whRyhxMDjAneAloBk1WP14A2wJQJUp3AST6fdsv5zsWrCShJJMSAYaaqIO7p2teB2xwFQZQBMcCc3HN5EHyuTlLItxgwYIARFvIvOH3ns3afC4mC5FFwUueEjhiTt64udffEzFwSX6NIQL5vpu4XAslEIFUEwfosWKLBd+Hf//46hMVPhW8fuys0eH9xaPj9N+HfDVcN32+xa1hxl4PDCutvHlZYaZUfegwK0F5I5rYma1YYElzgJM5x2kZ0iNwCauIpe8PIetldKY0L88D1TVyeXADCG5T0xT1hu1Emd4GTP2thHXgUCI/EmbuPQe5Fly5djBxAUiAc3qcgzu4xDp4Qch/wyFBWiMokGgRoGHi+QZw5xXleXfdkIwmlfmZ95qvPCgEhEB+B1BEEdBCs3YPxhG9D+PLT8N17i8J3H74dVlizUVhx423CCqs3+m/jJTpOIqEcHzDdmRsBN4JueCEHaAVgkIlbUyePcA6Jc+6Wrq9RiRoqfs7mFeD3SARDCtq3b29Nnnh+3MvXRfklFRCoA3JqxyOBYY6zhmg+A7kIeBGoNKCbZGapZbZ5+echOu3atbPwAuWfd9xxh63LSxTjzCXuunWfEBACtYlAqgiC/eOJ+NF/Wi/+V2eBTpL/kV1eRhzsV//prfCf/+kqJgJRI0gYgZPtiBEjTH8AUaLTTz/9R9UJ9Xm+G26+kyOAqz5bLT9/R2OB0klyHhA7ysetzxw9TDF06FCr++c5GGdKCfMxyoyDfgChlb///e+mNgguuS7HluchPU2IAl2FXXbZJXaoJNcz9HchIASEgFnRYkgtJwVKE0gK34UG5kVo8N9p/a+0MkoElnEI0YOibp9n1WPIKCekjBC1QU7quNEp6/POiPkY1MxJRr0UPBPPBIYaQ4uHAmNL+aAbdf+OsJGrC5KomM8c3DhDQq644gorV0RpkEoEEh7zHYvxIE4QDfIFkEFmvFzJjiQ5QggI1UC+yKfwz+Qzh6JuvAYTAkIgdQikiiCkbneqcEEYa1zmiPUgvYswEI2PyPqnhJFYeaFGLBpGcFJA+AIiQvIjpYf8jJQxIQCMaJQgIFRElQRld+gXeJOnuDA7KWF9eB9IDsQDwRpJDqyrQ2O28X0tNDlChwG88G6Q7Lg8rwbrRuQJ/QE8EIQ78GLk6wmJu2bdJwSEQO0iIIJQu3tfkpVjPJH5JefgxhtvtK6FGDPc+l7KVwhBcOPM6R0tAhT6KJHE0CPPTKIe95DsiJARxpsSxChBINyBiA9ufYxx3OoFB8rnQKgEeWaewRj0WEAEKN8kQ8bF4ONZwZMAoaGbYrTMM5vnBKKF14JyRrQkzBWoRJqSvM8aVAjUMgIiCLW8+0Vcu5+IOdHSr4DOfXgO+vfvb8aTOvl8jFhmdjwhBFzwJBnSpwGZX2r+8UhQHsnPEAC0/pE9/sUvfrHsVO2Gfc6cOaZ/AIEgRJDv5ePQWRIChBcBA0+iYb9+/WIlGWYz+AsXLrRmVIwL2aFTZV1Gn+exBogRipNoKbgMdb7r0f1CQAgIgeUhIIKg96MoCLhBpx4f44wnAZ0B+hwU4jlwY0w5IGNiOEnKw8gTKuD0zJd3RBw9erSJ9pAESa+EqGofYzEf8hIgF1QP7LPPPnmv2+eEDgKkgPAGYkmQEsgCjZDyvRgTjwQNqdBGQBaZtXBlCxtwb8eOHa1nBbgSbsA7kw/5yneOul8ICIHaREAEoTb3veirdoKA8SQHAO8BbX4x1iTeLe/K9BZwSsYbQOkfJ2XCAfxMox/c8Jy2KfFDKhmPBR0SMfx0Z6TLoksLR5+Jh4H7yUFgTAhEvpcTDdQXyalArpmcB5IGyX+gW2JdJ/+6nuWkA00D1kXpJz/jGclGECA6yEPff//95j0gZIJYEs2t8n12vuvX/UJACNQWAiIItbXfJVstho4wAGJIaBxggBEk4mTtIki5jCTGz1s+E4unPTLeAz6PlDGnfpoB4TkgTv/5559bhcTgwYPNk0BYA32DzNM0c0PUiNJGtAvIiSgkqY9xIC8QBKohGI82xpAiKiMw8PkaaScIeD/oVwAxIrkT2elsc/RSzkWLFpmU8ksvvWQdFcGBHAh5Ekr2imtgIVBzCIgg1NyWF3fBfvrHsGN8OcljNDlNU0lAQqAbOu7NZsBwmyP4w6mYEAKkgERHugGS4U/MnXGQI/Z4O5+h/h8PBdn8lAryc9RIuvGl3TAEg3HpGEl3wUIMqY+He5+cA7wkH374oclGE/7Ac1Jo4iO7Qu4GCYtUMkydOnW5yYoQFYSejj76aMNkzJgxVt5ZCPEp7huh0YSAEEgLAiIIadnJCq0Do4mRJKOf5kt4EfAecLqmRp/wAp6B2bNnmyH95S9/aR3/3EBj3HGZ46LnNEzZHwZ8//33N6NOp0MMcTQkwDNJ6COkQLIirn6M6wYbbPCDE7wb9Oeff94Ixl577WVu+XyNuEPr40GG8FagoEhVBXOGGEFk4jR+im5VNLyCOiJVH4RIwHLHHXesc1fdk4BcNdUikJOZM2eKIFTo/wd6rBBIIwIiCGnc1TKsyY0lSXoIBuHCp5qA0ywxecILVAoQCoAE0G/g1ltvNUOOCiAnYBQEScjjRA7JQCqY/gR8b9KkiekVuHCQE4pozB4CQZthXP6EHrKFFrgfzwaVDWglQDwyr8wciOXB53kII0eOtFAK3gl+R9kh68qm4BhnO3zcI488MsyYMSOcfPLJFmqoK2Thc4b8EF4Br3/84x+m7aBLCAgBIVAMBEQQioFiDY7hJ1gML3kHXJyiCRHgTeA0TxydZD5O/7jO6cXAiZcTMqddEg8hBigeYmy7detmjYayxdKjBAFyQcdCmiRhlBEqgkhkuteZIxUPnK7xTtCgiXLLuk7w2YhDtlAE4+I9IJeBJEUuKiPICYjT8jjb6xKtkPB8C5Iz61JWdIKAdwYixQWhABddQkAICIFiICCCUAwUa2wMDDQGihg4Ogd4DHBzEwPHTQ5BwGhDDEgshCRgQG+66aZlOQS45qlKwMBTMkiFgQsELS8EwHPxWhB24D6SIOkIWVdzJuSIyWNo1qyZ5QlwH8+GLLz88suBzoyEK0gSJDxCVQQhAzwDhAsw+FQWoJ0AsXHDfNddd9k6SRbkooU1p/9MApLvq8F80EEg1IDHhYTMXNLLgwYNMg8N5Y9TpkwxolRIjkW+c9X9QkAIpBsBEYR072/RV+cnXdQMqb+nJI+Mfu9sCHlAH4CsesSEMLokG/J7jC5lirjDOdV36tRpmaGPa9B4Pt4AchMwok888USdAkXcSwgD7wQhEJ5HmIH+EKgwEvqIc+HRIJ/CmykxLuNRUomCIwmTnN4JC7BWLseBEABJm5nPYr0QEDfm/DfPgSRBZAhZQErAMBdBgOxAmHbYYYcwbty4sN122ykXIc7G6h4hIASWi4AIgl6QvBDAOGL8aIpEeSEJhRhd6vExdk4gMIjoDWBY3RjjMcCTgKHOPPHnIgh+cufZuPbxHOAZIPkxW2iBRUFIeBbVC+Q5XHTRRYGTP4Z4ww03NK8CZMVzJzj9E8Mn5IH3wz0EeBFQg8RDwomez0M8CJmQA0FlBF4SDDrzpOSRxlGQF7wRyzvRs27PP2BtNLJCYOrSSy+1XAw8M65xkG2j+CzlniRIErKhGVYuUpHXhutmISAEahYBEYSa3frCFu4u/tNOO83CCCj5kTsQ7UPgJIHv1PVDCkhORBWRvAGUFrlykYLoDJ0gEF7AqGMUEUjiFF9XciIndwgCBp9nI9Xctm1bO+mTrMjv6yoL5HkQC+Y7bdo0C53wbASMUEwkLAFxwDBz2qeSAqKBQec5GHpyAzDukCju9Wc5OeK/+YIYQKJ4HhUS6CHgieB3kAUqJpZ3ETJhDvRoIA8CcpIPtoW9CfqUEBACaUdABCHtO1zk9WE4MWKcVMm2x0tA2CBqaKNVAfxMsh1ufhIGOXVjpAslCPRiwIBijEmIRBmxLoLACR6jSY4EHoHOnTvbyRzvQT4XRAO3/6OPPmrhAkgPX3goIAC4+CEEEANIASqP5FZQWbHRRhvlVJJ0bwfj45WZN2+e4QkJwnNBOGN5FwSDEtLWrVtbGSkEAUKiSwgIASFQHwREEOqDXg1+FoP/yiuv2MkWpUN0CFq2bJn1xOrhCEgBSXTU9ROrJ0ae7+VeCUonPamRTobZsvz9uZyqSaKEQJDdz8+EOfIhJ/5cPsNJ/YMPPjAiQEnhI488YgQJQw75gSycf/75lpuRWZ6Za73+HLDFM0LYhnnj7fAqkbrG4LMITRH+gJQgmkTSZz7rzDU//V0ICIHaQ0AEofb2vF4rxhiR/U/MHRc47ndi5XXJAmM4cZFzcqfEkfyBfE/wTJjnUmlAaICTNgbfmxpl8yBwuqeqgD4F9IRgvtEwSFwXfNQbEgWO31PiCOnAmJOoOHToUDPoUVGnfJ/DuHhJWN+CBQtsfHQmlnfxGZJGqWLgOyWlfE7VDPV61fVhIVDzCIgg1PwrkB8AGCMy9+nSSMIfLnCMEeqI2UgCp2tkkEeMGGEGFMNXSCkgz6VkkfAE3zm5o4yY7eJeKilwt0NmCEWQNxA11nENd13j+4kf441oEi59tB3wktR3bPIb8Bq49DIdKnMRBJJCyQc588wzLS9i2LBhWcMv+e227hYCQqCWERBBqOXdL2DtGEZc7ZADDD/JewceeKBl8FNVED2lMzw6AXgNMJ6UPtLWmPK+fC+eyzN5Ds/n9O4lhZljcS96BqgykoeA7DOyzBjvqNZCvnPw+50cMA9CLeQIIG40atQoS6CsL0GAgF144YXmnSFkgSplLoLAnJ555hlbKwQK0obXpBAyVigu+pwQEALpQkAEIV37WfLVuHHEACOUhFcAVzhyvzRoQp+ArH2S9kiew8VPZv/6669vpYne0CjuRN3Fj2Jgz549rWcDz8LwL68CAZc//QzIeSBngM9AYOi4yBwpT+TUz/i5DHpUxZF5OwYkE+JJwUPB2nkWCYpOQrg319iZpIP7Fy5caOSGKgvyCUjKzEUQ+Dt7ghgVOQzkIBDacWnpuPOIuy+6TwgIgfQjIIKQ/j0u6gqjMXlKBzHUuNghApyoKQN0HQGPjUMU+vbta/F5svzzMVb+PEIGGDtOySQqMl5d47gBR6SJfg+UY0Jm+G8EhciBwIDSNRFxIebESTuaWOjPjeo1+LiQFTQHIDxoHrBuCAnJl3RXZJ6IOOUju+xjk7PBXPEaUKJJiWimVyabx8R/R7Ii3gfIEeEGyMLqq6+eF+ZFfWE0mBAQAlWLgAhC1W5dZSceNZaU/iEWBFnAcL755ptWBggxwOWO0aQ+H8Ocb+KcP4dW0Ggv4H7nhI3s8fIIQvSkT+IeXo7HHnvMKg/QG4Dc4NWA0ND/gbJJvpNgiGGH5OBlgDxwDx4R7oEMkCTJyR6ywrogGoQZqOhgDEobIQvoQ+CxiDZQyjZnJyMkVhJGob8FmgtIKLuMdJzdZhyICl4WPBtUVZDH0KZNGxGEOADqHiEgBH6AgAiCXoiCEMjM7scwkShHpQFGlJMwBIHTL0YzGgvP14PA2OQe4AkgGRLDnItoZM7PpZ5JmoRkoKxIcymSGEkKZL4eEnABI0IF5Evwxc+QB8aF/HAPp3xyEGhMRfkj+gOc3Ak94GVwkkGVByEOejrgWYAoeUMqvBrIMT/88MMBEoSMNBcVHyQngltdoZS6PAmQIfJDWB8lpuRf5IN5QS+EPiQEhEDqEBBBSN2WVmZBUYOcrTQwU1o57iwZi9M+FQnIKuM+x/i5MY8zTubc/KQNmYHUYPBJtqSzJCd3jDbiSjROwvvA7yEAhDkIQ5DDAGFBPdF1FZgHxIgxyXmgagNvAGM7ycDQ452AMEEe+BnRKcaGoPB5NCUgBoztJCJf484cCMMgToU3gl4ZagMd503RPUJACEQREEHQ+5BoBDDmhBSofkCcCPc+LvNiX3URHIwz3ge8GJAH/htPQrb20j4nxvJmTZAavvBUkB9AhQHj+PMYhzBMhw4dLFxBkuPKK69sQ8X1HGTzJJCsiB4CY1M9goCSLiEgBIRAPgiIIOSDlu4tOwIY0qlTp4Z+/frZKZ/wAm76UlzZPB/Le06cHAj3dDA2XgLCG5Ro4hWBHJAHwXrcW/AD9r7CCgUt00kVfSoIe5Do2LVr16yqkwU9QB8SAkKgJhAQQaiJba7ORXqCIh0h+cKIkmhI8qCuuhEAN3Ig6OpIB0vErNBTWF5ip/AUAkJACGQiIIKgdyKxCLihI2Fv3LhxJnREXL8QqebELrIEE3NPCBLQ9K0gpHHnnXeqmqEEWGtIIZBmBEQQ0ry7Vb42DB2Je5yAcZUfccQRJkFMyaGu3AgQyiCZkuoIwjTkORSiYpn7SbpDCAiBNCIggpDGXU3BmvwUTNweLQA8Bz169DC1QnQJdOVGgMRK2nKj0UBFA8JJaDnoEgJCQAjEQUAEIQ5KuqfsCDhBwMihwEiiHRn+t9xyS84QAxUExOAp90N8CJLBeFQHRHsxkGRIoiCnatc+iMoqZ1Y2eDUDY/NzZlIjYzAeVQ65ShNz/T1XwmSuz7NhjEEFA5LLzAmFRhQk43y27BuuBwoBIZA4BEQQErclmpAj4EmKdCkk2Q6RowsuuMAUFb0qAAKBwf70009NtwBVR6odED/id2gaZBIEN5AQA0gDyY/+HQPPxWcY2w0tz4sSDp6ZeUEQGGuzzTZbJoiEt4MvdAjQPfDSxVxGOhdB4NlxxqCs8sQTTzRhKMIziDtF21HrbRMCQkAI1IWACILejUQjgKFEupkyR/oeUBZIqAHRIggARpwvV0ikjJCmRQgguYF3o89/ZxpejCxGG7Lg3gRPjsRLECUrUc9BNuPM7/gsIkjrrbeeufPpg0DXSf6bJlaQB5QXnSz4szPH41msAaKD2BKeEMZmjoyHnDPj8T1bx0afC2ugmgHhJKo/yEWgmkGXEBACQiAXAiIIuRDS3yuKgBvrp59+2voLzJ071wwkBjN6isdwYpAxmo0bNzYigSHmO6d3DCbeBDL6+ZyrKWKE+Z0rKJIUyb0YcG+25CSCkzfP5juhiky5Z4wxyojPPvuskRrICiSGsbmXz0IeUF+MNobKpjLp4QzWyRfz4mIcvB0+FmvdZZdd7Kt58+bmrfB5ORlCoOnII480DYkpU6ZYEyhdQkAICIFcCIgg5EJIf68oAh5mwNh27tzZujPyO4wqp3FaQPOdkzrVDZABDDiufv9yY+zhCDecnqvgv3cPA3/3vAQ/2Xu+AmPVpaLoYQhO/JARDDveDOSa6bHAF8QB6WYMvq8tWzjBwxUQCoiPd5tkzpAOKhQYl3H4O02l8CbQ94FukrSI5vesg8/QM4JS0VatWoVZs2bl7GVR0U3Xw4WAEEgEAiIIidgGTaIuBNx4YnDJxCfRDiPrp/yOHTuGiRMnLksyrC+S7pqv7zjR0IQ3r/JGVh6q4B4nCZnPYx7ew4HvUS8Dn2dMvBV0kCS/AA8LJArvAmQJwkAnSUpEd9ppJ8vLoJ8FstXghaxzrhyGYmGgcYSAEKhOBEQQqnPfamrWUS8CRo9ExHPOOcfIAhLCJDAm9cr0DkT/O5dUM2ta3j0eJoEs4KmgT8Xtt98e5syZY4SAC7JA46devXpZ/gFNpAhP4IEotNdDUrHWvISAECguAiIIxcVTo5UIAYwhBo6MfOL/b7zxhj3JyxNL9NiqGDazHJM+D0hS07Bp+vTp1vcBL8R+++1nv8cbgydYSp2PAAAgAElEQVSB1tm6hIAQEAJ1ISCCoHcj0Qi48cOtfvjhh1slQ//+/a22369ad5XXVRJJTgUhiNGjR1tHSXIfvDIDASU0EnQJASEgBEQQ9A5UJQIeXqDaoH379lYhQNvnFi1aKIaeY0edOEAUqP4gH2Hx4sXmddluu+0MS11CQAgIAREEvQNViUA0/2DfffcNlOwtWbLEygVr3XMQZ0OjFRs777yzkQJCDQceeGA466yz4gyhe4SAEKhRBBRiqNGNr5Zlu4H729/+Fo4++mgTDSJ73zP7q2UdlZynk6w999wzPP7442HSpEmhS5cuSlKs5Kbo2UKgChAQQaiCTarlKbpxowcDlQtk4L/88ssGiTwI8d4MJ1ngRxVDmzZtwoMPPiiCEA8+3SUEahYBEYSa3frqWDjGjcS6gQMHmnFr3bq11f3ryh8BwguEFkhWRDOBMI0uISAEhEBdCIgg6N1INAIQBBonIRVMmSOn4MGDByd6zkmdHHoJiCY9//zzYfLkyeGQQw5J6lQ1LyEgBBKAgAhCAjZBU6gbAQgCIkCoACIABEngFKwrfwTA8rjjjgu33nqrlYyiqMilUE3+WOoTQqAWEBBBqIVdruI1YtRwh6MGSB+GefPmhZYtW1bxiio3dUI1iCfRv4KmVosWLVJPhspth54sBBKPgAhC4reoticIQUAWGEnl5557zsr0tt5669oGpcDVQxBef/310LRpU2tqhZ4EREEehAIB1ceEQMoREEFI+QZX+/IgCCQl/vrXv7byRrwIdG/UlT8C3r1yvfXWCwhPnXHGGeGyyy5TNUP+UOoTQqAmEBBBqIltrr5FRiWWkVa+4YYbrDxvwoQJYYMNNqi+BSVgxl4yOmTIkHDuueca0SKvw/GUJyEBm6QpCIEEISCCkKDN0FT+h4ATBEryjjnmmDBz5kwjCVQz/OQnPxFU9UCAqpB11lkn0N8CbK+//nobTQShHqDqo0IghQiIIKRwU9OwJC9v/NOf/hSuuuqq0LBhwzBjxoyw7bbbyiVezw0GW5pd/f73v7eeDLSJJidBBKGewOrjQiBlCIggpGxDq3057jngO/LKffv2tWQ6jFnv3r3D2muvnfgl1tVdMdvEK2GUmd8777xjCYobbrihETCSQCsxl8RvpiYoBGoYARGEGt78JC7d4+RoHxArv/LKK6250NChQ616oRqMWDUQhE8//dREkyAKaCKMGzeuKrBN4jurOQmBtCIggpDWna2ydUWNKop/f/nLX8If/vAH696IxDKqf6usskoijNjyCIALO5E78dVXX1mcn+qB6GdWWmklc+lTTZBtTaUmQcyFuZGoiPdgr732shwP5qVLCAgBIeAIiCDoXUgEAtG2xIsXLw6DBg0Kt912W+jWrZsRhS222MLmWWrjGQcM93JwLwSAOfEFKaAM86mnngovvfRS+OSTT0wmOpMk/PSnPw2bbLJJ2H777UOrVq3Cz372s7D++usvC5+Ueo3MnzlBwjp06BB23XXXMGXKFFWHxNl83SMEaggBEYQa2uykLjWad/DBBx+EG2+80UILGM1hw4aFffbZJ1GJiU4Q0BKgKyIGn59ppUwiJafzjTfe2FpSR4kP+ONN+PLLL8Pbb78dcPOTJAhZIHxCnwkqNBo0aFDyrWJeL774oiV9QlSQX2YuuoSAEBAC8iDoHUgMAlGDS6+F888/P3z88ccmjkRiIiV5pT5V5wOGV1hABi688ELrE0EL6nfffTe0b9/eYvtNmjQxgsDlHSmdIHz++efhtddeC3Pnzg0LFy4MTz/9dOB3aBLgUSgXQSB8s9VWW4UWLVqYBDOeBF1CQAgIAREEvQOJQcBj9BhKSMH8+fOtPp8TtUsBJ4EgRMWbHn744XDBBReY94AQyLfffms/cwqP6jT4vKM5CP4zPSbeeOMNWyt9EZ544omw8847l5wMOcEZP3586NWrV2jevLlpTLRt2zYx74QmIgSEQOURUIih8ntQ8zOAIGAsKWUkm37PPfcM6B/g+nYDmxSCwFzpB4HngLbJAwYMsDyJzPLLuuabSRSmTZsWTjrpJCMX9JpYbbXVSk4QWMObb74Z9t9/f/Ng4EUYNWpU2HfffWv+XRQAQkAI/A8BEQS9DRVDwEMLX3zxRbj44ovNSGFof/e734Xjjz/esuqTQgw8VEACJf0LJk+ebLghV0y+xB577BFrrlGCQA7C0UcfbXkMo0ePtjVzlXrNEIQXXnjBCBjX5ptvHq6++moLlegSAkJACCjEoHeg4gg4QcBrcOaZZ1rJHw2ETjvttLJl9McBwedJlQIkZuTIkRZSwMDTx+Dmm2+203ccwx5NWkTNkCRMxqHqoVyVGhCEsWPHhhNPPNGWT/vsW265ZRlhiIOJ7hECQiD9CMiDkP49TtwKo6do2g/vsMMOVg4IMcCTsOqqq8YytuVamCcZohVw7LHHmvogWg3M/YorrggnnHBC7Dn72iEFv/rVr6zyAVf/pEmTTBuhlJcTncceeyx07NjRMN57772t/TMhnZVXXrmUj9fYQkAIVBkCIghVtmFpmK4bKk6yRx11VLjzzjvDLrvsEkj8S2IjJtcNmD17tiXzNWrUKAwfPjx06tQpXH755WGbbbaJvS2+dvofnHzyyWHJkiXhmWeesWTMUlcv8GwqF0hKBGeaNKGiyOVaDrEXohuFgBBIPQIiCKnf4uQt0E/kZO23a9fOTs5k1BMDL7WRLASNKKF54IEHzGPw9ddfW/VCv3798pozY6GZQHIjBhqhIkgHYklxQhTZ5h/VkfC/Z0vu5D66YeKtQLqasE70KvT5hWCqzwgBIZB8BEQQkr9HqZlhNLTw/vvv2wkc5UHc3Sj5QQ6STBDIQUCamDAIZObSSy81DYF8DCsYUM6JcZ41a1Zo3bp1uPfeey1skc+VWQ1BiAaBJr5zES7ASxBN9OQzO+64ozW/ompk3XXXFUHIB3TdKwRqDAERhBrb8EouN1q1MHjwYEvQ4+Q8ffp0U/RzV3cl51jXCZ1wCCEQqg7wHqDRwFe+rvlMgkBZIxUFCCvlczEfLipAFixYYF9IPFNlgYwy4+2+++4WTuBn8jqcIFDaCNlZa621fkBukkjO8sFE9woBIVBcBEQQiounRsuCQPS0i0GjxwIudowrJYPoACTVOEWTChFGohyQ7pIkJ5L9n+/FeMgsn3766eY5wHBTwVAIQaDXA2EKEgxJekRxkvE+++wzU2ak0uLnP/+5hRUaN25siZV0yETOmmoMKjD4PaWakIXllZXm4yXJFxPdLwSEQDIREEFI5r6kalbuOeDkfd9994XzzjsvvPXWW2YkcdNDDpJqgDxfAnEkiAHz/M1vfmNrcCnlfDaL8ejFcPbZZ5txJ/+CMAv9GPK5CCVAUujIiJHv3LmzjUX4guoKkh8hY34x7yhR47/XWGMNC5EgD00lA70vIBTMhfBDw4YNl3l1kro/+WCme4WAEMgPARGE/PDS3Xki4EbJuweilohiINULnHwz4+B5Dl/y2z2pEE/HRRddZHLE11xzjZVmFuL1cMJBcyQEobhI1qS5Uxwj7HiiwEi4g7wDEg7xwkA0kE7Gc4Bxx5tAxQXiU/zMHuBd+Otf/2qkgjwEPA38Hu8B4Z5mzZqZXDSSz5Rf4mVwIhRnfiXfED1ACAiBsiEgglA2qGvvQdHsenoNQA5IRsTwQA4QBirkFF5OJFkD8XrKMN977z1TO6TEsVCvh2NC3gV9JzjpkzSImz8O4SD3gCoIkiRJcmQ+qDDyWZpF0cIZMgBBQL4Zow9J4HcQh6VLl4b777/fvATcj7cBYkFeAmEKCAfPgLAcdNBBRjjID2G8OPMr597oWUJACJQWARGE0uJb06N7aAGjM2LECDvp4sZGmph+C5CDpBqdqDsetz3VBltuuaXNHXd+oZdj4gQBA41HhZN7FAt/fmazJ35/xx13hFNPPdWMOV0kCQvkuhjHExu510MOeBTQRiDkA0GAyEEgWDP3k+h43HHHmccHwpFvUmaueenvQkAIJBcBEYTk7k3VzwxjhvsaBUJaOJOtT5Ojnj17WlKcG6okLjTq/WDOhBcgNffcc8+PGjPlM38nCCQmEiKg4dPdd99tHgrc+X5FCUr0d/yezyEuRfIh+hFxrswchGyfgRBAEqiIoP3zxIkT7b9JoKQUlXwR8hwUaoiDuO4RAtWPgAhC9e9h4lbgxg2Dg7FBUIjkRIwMhhblwaSfRH0NZP5zuqfyAINM34X6eD18XBIIwQPZY0oRiftjkPk7yZyc6Kk2oDIBTwvP5zPkCpDgSNLknDlzwm677VbU/fcciXfeeceqLPD6UDqJ94B+EyRWEraIkjsRhqJugQYTAolBQAQhMVuRnon4Kfmjjz6y+DgnT4wg5IBKAIxckr0HzM0NOe53CAKJfjfeeKPF5etjEKPEg1wM8gggHORk0Iti3rx5JsZEXgLkhNg/z6NqAW8MP5MLgcGGfLmxLtbbE/WcQEhefPFFmxchB+ayzz772J4iDZ1NrbFY89A4QkAIVB4BEYTK70GqZhA1gCQk0m8AY0bnQk7gSWnhnAt0Jzn9+/c3QSfyDzi1o05YDIJAwuABBxxg4ksQkKlTp4bu3bsbMSC3ADLgaogkGZJUSEkiFQjkHZCDwOkebEtx+fr5/vHHH1vPhkceecTWToUD3R/BJOmeoFJgozGFQK0gIIJQKztdpnVGY+zICWMAEUWiXh/VwGq5WAdGfKONNjIDycn5wQcfrPf0nUAxNt6IGTNmWHUHlQSQBAzuVlttZQJSJEbiIfAui3R+7Nu3r92Lp4FSy3JVgTDfQw45xEJFzJHkRUIiccsz6w2cBhACQqDsCIgglB3ydD/Qy/D+/Oc/m/egTZs2lvnP9/qcvMuNGoacfhH0SKBEEAVFSv6KcTmJ8r4OKDQi24yAEgmBVBEQkoleeBQoi6SxE+WhDz30kGkZlAtTnzOkhoZVXFRzXHfddcsaTZVrLsXYA40hBIRAbgREEHJjpDtiIBBNTMQFTmkcJXOceAcOHFiwbkCMRxf1lmgMfuzYseHEE080HQGqDtZbb72iPouERzwrvXv3thAM+gaIJ9GngitaeQCmZ5xxhnkxIAnHHHPMMs9CUSeVYzDyHwiFQFBWWWWV0KNHj3DJJZdYdYNfIgrl3BE9SwiUDgERhNJhW1Mj+wkTI4dKIIltSPiiOpjkRkyZmxTNoaBCgOQ8ei6Qf1BMw8dznnzySSNSJP9BAMjPQN3QQzFOEHDvY4TJOcAQo4Ow6667FnU+cV9WPEQkbkKcCHngxaAMlNJLQiHKSYiLpO4TAslHQAQh+XtUFTN0gvDMM8+EI444wurn6Vnw29/+tmxx8mIA5etAswFZZaSIqTDo169fvcobsxERqhQwriQmIpzEiZyqAeL60QuSAo6c2slX6NOnj0lUF5Ow5IMdJIE50UsDkoM+BBUq5CV4/wb3gOQzru4VAkIgWQiIICRrP6p2NhhWSvEwpGPGjLGa+WuvvTa2hHBSFu46AOQF0PmQ/37ttdcsF6E++gd1eSowtm+++WZo1aqVkSpyESABXi0BphAUSkWRY6bEcI899rDhKkUQXKsBnQSqPNBsIORBKIn8CPciVGp+SXmXNA8hUO0IiCBU+w5WeP7RmD19AA4++GCL2eMSx+1cbS5nr17Ya6+9ljVRQg65VOvgeXgSqEggzwFhpLPOOsvKGjG2hBQwwuQeYIDJ6eCeSl7uZaGPBImWhJGopiCXAu8GZEoaCZXcIT1bCBQHARGE4uBYs6O4seAUfOyxx4annnrKQgz0XojG0qsFINZDHgAxfogBzZAQSCrVid0Jwk477WRS1FzE8kmIPPTQQ02CGcNLvwWMMeJKlT6ZOylkrvPnz7fwB5UXlITyM8QQKe1SkapqeZc0TyFQ7QiIIFT7DlZ4/hgLhH0wYuj3cxIm+3/77bevuCHLBxonOnyG0AjVBCgJ0ooZPYJSXR6a2XrrrcMbb7wRIAqcxldffXVrkIQUM3jiVSD8UMncg0wMPByD5DNy2ggpNW3a1ISlIDLqAFmqt0bjCoHyICCCUB6cU/sUjMTs2bPttEtnQPQP+LnaTo9OECAF3bp1s6RBFA5JxiN5sFSXG1m8FCT9cQqHZHXt2tWqGggvuBQzhCFJuLongTwJtBHI2yBJlWRF3gPCJMXM2yjVHmhcISAEsiMggqA3oyAE3DjQWIgENbocUhaIYa0mxURfvBMET7xDwwGPCGWIpTRyUWKCfDEuek7ehBTwzCxcuNAkqtFG4HSexIs1QKyGDx9uYRCaTKHZMGjQoGVS0JUOiyQRN81JCCQdARGEpO9QQufnBAHZXyR4EdCZNm2aVS+U0qCWCg5PTjzllFPChAkTzLARX6cFcymNWzSeT0nlc889ZwmJuOvJ58Dwkpx43nnn/aCEsFQ4FDKurwFigNoj7atRnyRpdccdd0yU16OQ9ekzQqBWERBBqNWdr+e6/eQ7atQoi9dvvvnmFq+PNmMqpWGt5/SXfTxahYFYEfLQjz76qOVUUOZY3+ZMcefpePIdojBz5kwLdZCbcPnll4dOnTqVlKjEnefy7qNkE02HE044wUINtLD+29/+ZmTBr2p4J4qBhcYQAmlAQAQhDbtYgTW4YeWEO2nSpEBZIKdustcxCEmKlS8PHjfMqBWeffbZpuHAzxi4bbbZpuxGmfngjUFACfJF3gHSyo5pBbY69iMdS0ST0G6gtwR5FfSxkDZCbBh1oxBIDAIiCInZiuqaiBsDmgiRXY8xQ2Z57bXXtox7YtCei5DkkIOvY+7cuTZv5INpwzx+/HgrNSzXiTfqQaBTIzLV4IcaJSEGrnLNpdA3MUq29t577wCmeBUI2Rx22GHLQiRJX0eh69fnhEDaEBBBSNuOlng90Zi5x+1xxyMDjOIgGf8k2XliHe2KnSAkyTBE10E7Z5IDqSTAKNPrgPbOlBuWa85uXJcuXWqNmwgrUCpIoiT9DqrpghSgrsj8FyxYYCWbU6ZMMUnmJL4L1YSt5ioEyomACEI50U7Bs6J6AbjiIQV0JbziiivCGmusYbFychHeeecdU1Wk9A2J4HIa2zgwR0/skydPtlM6xqxnz572s/dDKDdBoKySHhCEayBeuOuT7IHJhrWTLxItqXDhXaDk0dtYs55y4RrnXdA9QkAIZEdABEFvRl4IuGElnPDwww9brJx4fYsWLayDIwlquMhpY8x3chOQXaajY5IMna8D7QZEfijRI9Hy+uuvD7jHy2XAop4MCFevXr3CuHHj7LSNlkBUtjivjUrAzXgSIF9UNlDhAHkkxyMauikXzgmAQ1MQAlWHgAhC1W1ZZSeMQaM+n9MgbnkklonZc9rFpczfMQyU651//vlWrtejRw+7FxGgpBgEJwiQGMSIUCwk3k8eQjmNctQjgwcDBUo8MeR1DBgwwDY7KZjl++Y5+aEaBBJGuIlGVJAg9yJU69ryxUL3C4FqREAEoRp3rQJz9n/sSUr861//av/QU9JGKR4ueQ8jMDXu5T73JBCPvuyyyyzkUOnqhuiJ/cMPPwwjR460uZFciReBOZbTBR5N9jz11FMt5wC5ZQgYJ+00XORVuDplhw4dLNfD9SVEENKww1pDWhEQQUjrzhZ5XW7IFi9ebKfBO++8M/zyl7+08EG0xa8TBL5T5obBQ+QHNzMndToRVtIo+DporUwyIrkTqCbSlImwSJMmTcp6avf5oMGAqBCNmpgHHoQkhWTq8zoROiGJ9Ve/+pUpRJKXQm5COYlYfeavzwqBWkVABKFWdz7muqMnbkILnP4uvvhiS6KjqRE5BlFxpChB4LOUDeK6p46f2njkmCtFEHwtCBGh9nfppZdai2VOteRS7LzzzmU3yu5tIX+D/Ictt9wyzJo1y07YaSEIhJzQdoAgPPvssxZyQhuhXCJUMV913SYEhEAGAiIIeiWWi0A025+QAqEFToPkFJx55plhzTXX/NGJO9ONjwfhtttuM6NAK2AIRSUu5uUNpSArVGCQDAhR4PROeWa5yQtzIo8DckIiH+GOas89yNxb1kjPDggQ+hh77LFHGDp0qLWyLjfelXjv9EwhUK0IiCBU686Vad5OEOjYh6IfBAE3PP/A03dhef/Au04CcX6aDR1++OEmy4ybuRxXlKjwM2tg/hMnTrTSu1133dUMMt0Hy01afG58J4cD3QMICqQlLbkH0T1mnXhGPMeDEAoJoVJYLMf/E/QMIVAYAiIIheFWM59yQ/bqq69a7BjjygmXf9xz5RM4uZgzZ47F1TlFXnPNNXZyLMcVJQiIISHehLofXgQSAUlK5OSeGSIp59zApHXr1uGFF14IXbp0CbfffntqQguZBOGVV14J/fr1C/fdd1+gKRakyMMM8iSU463TM4RAfgiIIOSHV83d7TFyiAHuYUIKnLqRzs1VkeAEgfgzhIIGRLQ0phySq5RGIUoOOJXTcRIjzDPRORg9erSJ93BqL/Vcsr00Pj8qQiAuhBfQk2jZsmVJcanUC8x60c5g/6nW8NAOXpxc71Gl5qznCoFaR0AEodbfgBzr5x/2f/7zn2HQoEFhxIgR1nwHTwI17bkuN4KckvEg0K+BqoHu3btbkmOpCEKUHEBOCCFAEngeFRh8VTIB0OdHlQeGkpbZkBWfY6lwybVfpfy7r3n69OmWh8La2Qev1kjjmkuJp8YWAuVAQAShHChX4TP8H3T0DBA7wmNACR7Sv7REjvMPejTOftddd1msHbEkiEbz5s1jjZEPdNHn8TnCCngOCHHQI4IkOU7rlfAY+Drcq0JFCKqTVFNAVvAktGnTpqJzywfrfO/1vXn99dftHaL8FbJJbgoaFHHep3yfqfuFgBCoHwIiCPXDL7WfdkOGXgAGHVVEYuRk/Ddt2jSvf9AZC7Ek1BYhG2goeIJjsQxDlBx4WR0hEeLdhBEIi2CQivW8fDc+6tVAF4CETzwxH330kZ2iSd4kHp/2C8KJlDRhhq233tryQCiVrSRpSzvmWp8QKBQBEYRCkUv55zBoGNrnn38+dO3a1QwZpY3RzPO4EHgFAZ+/7rrrLEENwoGkcDEMdpQcEM4gGY7x7733XgtlIIKEoFMl6+6dcIEZWgAk60GW6BpJO+T111+/KFjE3ZNK3QcOlMmijfHiiy8a+TzxxBMrkihaKQz0XCFQLQiIIFTLTpV5nm7UcYHjlqd2He0A4vn5Xm4cSVKEYOD6f/TRR8Omm25ar1yA6Kmcn31cSjAZn46MxLshJpVyY2fOEc0D14Vg/XhTdthhh3rhkO9+VPJ+8CAhE0/UlVdeaeEqvCfkYMiLUMmd0bOFwI8REEHQW/EjBNyg8w85Esn33HNPOOmkkyzBEEXEfC83kiQ7kqBIvH3q1Kl2evYqgnzH5H6f5zfffGOnUbofUm1BOAPhI+Z+6KGHmqeiUsYn6jmAHEBeiL+zbowkBGb11VevCe9BdM/Gjx9vZJE24OBBwy9JLxfy/wJ9RgiUDgERhNJhW7Uje3iBjozEh3HTU8UASSgkJOAEAaEiJIVxqWO8GbOQuHv0VE6OxAMPPGBxbTwUjMec+/btG9q1a2fJiYXMub6bl+k5eP/99y28gkudOdOLgByExo0b11SZn+PCu4UnBaIIUSLstNZaa1WMyNV3v/V5IZBGBEQQ0rir9VyThxfou0BiIcJGt95667KmTPkOH80RoH8DvRyoZsCT4FLNccf0EznfUUNEpRE3PUJOVEZQtXDEEUeE7bbbbpnbvlIEwddNN0Pq/4cNG2aljPQkoPcDmgd+VWKOcTEv5n1RskgbaN4FvD3oUrBn0kQoJtoaSwjUDwERhPrhl8pP84/4J598Eg466KDw5JNPmkQyZKG+vQoY96mnnrKkNMIA8+fPN6IQ94oSDUoXUWUkRwKjst9++4VevXqZ18DzDSppdJ3IIA6Eh4PT8oIFC2yekAMEgnCvV3KOcXEvxX3gM2PGDOvwuXDhQuuseeCBB9b7HSvFXDWmEKhVBEQQanXnl7Nu/vGm/TDJc40aNbISweOOO64o7t8PP/xwmTYB7mWMQpzLyQH6AZw6KV9EeZCuh3369DGdhq222uoHBrdSxtfJASEVyAFJeHSNpLTTyUGlFBzjYF2Oe8AIyWvKHWnkBVGg3HPdddetWdJUDtz1DCGQDwIiCPmgVSP38o83wkYY3e23397ixJ5lXh8IGJeEQgSC6DnAd1zLy7uiXoPFixeb2NL9999vcXz0GEj6o8IiSYbFczhInKREFM8BPR/IuSAxE8GpbOSF30VzFxyXShGd+ux1rs86iWI/0UKgzTVEge+VVLnMNW/9XQjUEgIiCLW02zHXyj/enMrJFyDhD1dwfaoN/LFuOInFk6C32WabBZLVchEE9BioncdzQLMlTuaEPXDbN2vWzAwuV1IMqedwgB8tsblIwINkeRUIc8UQUmGBF4R8BIgOhIzfOVFIa0ze1wc5IEmRdSLD3KJFCxGEmP8/1W1CoNQIiCCUGuEqG59/uFH6o9shJ19OwCQoFsP4+qmR8ADeA2LwS5Ys+YFxzzxBQw5I8EODATc9ZODmm2+2k7h7DYoxt2JuE2tAsIk6f8ILdV1OEsCBagsqMCh5pB02BAjsIQ91eRsYl2clbf1xsPR9pqoDESvWQDhGBCEOerpHCJQHARGE8uBcNU/hH27yBCi/w2gRGy5WcyM3Co8//rjJNmNE0UaIJj9GCQLkYMyYMYFsdzT8SWgkNOEJfg5q0gyke0oQboLcMGdyJ/z3fCd5kTAJ9xB2iV54FiBCEIYNN9zQ8jQ83FNXk6ukYZDrhfd9hvjxxTpJVCSPRCGGXOjp70KgPAiIIJQH56p4ip/w0RPAKPGPNsYN13cxDJAbBboXdu7cOXzxxReBbotRLQS/BwOKgA5xewgLHg08B5QyJt2AOI51bXo0r4LeBIRMwGHWrFmmlUB1B6SB3+405yEAABZ6SURBVPN3LvCHSNFFk3AE1RrbbrutqUVSKppZEQFG7pXgb9muqPeB+x3XaFjD74n+PUrMIHFR4uOfjYZIHA/u9ftZn+eUED6isoUETjwmSd/fqvg/syYpBIqAgAhCEUBMyxD8Q45BQsQHYkBd+hNPPFG0HgZuNKiQIKMfw//GG29YHwJ3l3MPJ2s6L1I9AYlo3769qThiENNqPKJGlBJTNCLwPpCjAVkCB74T/sm86gpBeAgj07j7/TwT8oBXgnANX+RK4L1wnFdaaSUrG2WPIIzkUPh4GHv26t1337VeHcyRv/GZqCoic8ZTQjiJ73yxRn7P8yE9lNHyTkCC0rrHafl3QuuoHQREEGpnr3Ou1I0zPQIwRri1Pf+gGB4EJwGEFVq3bm1aCDQs4jTMhcFxxUHczlx4MghxeGy6WPPICUYFboiGV5wwfPnll6YTwCkbD8Pbb79toRm8C/6VjTR4Lgn3uhciG7Hw039d9xQLBveA4NXA47HaaqsZ2SCkgBhX27ZtzePh3pJiPVfjCAEhUDgCIgiFY5e6T2IscG/jOeBUSfwfb0KxLjeAGD0IAkmHeAnQ5OdvEAYy/6+66irzWtBH4eyzz7a2wGkmBnHwde8OZODzzz+30zhKknznNA65cuPq9/J7CAUn+6jL358HpnzOPRRONLIRFf4WDRH4szjtc+rHExANUUTXxHPwSkAMmjRpYjkkVGuQ5wJRyBbaiIOJ7hECQqC0CIgglBbfqhodw0AtOg2EcDcjRERGfbEuPxVzWu3YsaO50Q8++GDTQkBrgRLGG264wVzZPXr0sLg0pZBpLfXLB9eo0Y77ubifieYQRPMjfL/IFyDJ0r0RTkY8nACZxBsQzYPIJHS+h/77ughfrRPBuHur+4RAORAQQSgHylXwDDcGnOYpz+OkR66Au32LuQQMDG1+x44da2qNtGOGlHAR3qCREy2miXsrHl1M5DWWEBACQiA+AiII8bFK7Z1+auSkyMn+L3/5i1UN0IehFAaa551//vkWXkA8iAREhJPwWiDpTGgBPQB3Y6cWeC1MCAgBIZBgBEQQErw55ZqaEwS6DtK5kaQ4EhQnTZpUktg/z3MRIUgBksRUS5BBT2c/suDlai7X7us5QkAICIHsCIgg6M1YlsBGySGaByS2cbofMGBASQw1BGHUqFGhX79+VkJHsl3mJYKgF1MICAEhUFkERBAqi38inu75ByQNHnXUUaZPQDtlvAmlMNQ8D9U8EhEJJZCJX4pQRiLA1SSEgBAQAlWKgAhClW5cMaftWewkC44cOdLK1ig5jJagFft5yC136NDBiEGmmmIxn6WxhIAQEAJCoDAERBAKwy1Vn4IgUFt/wAEHWKkhrYnJCYiq4RVzwTzvtddeswoGyudeeeUVq17QJQSEgBAQAslBQAQhOXtRsZlgsP/xj39YYiLGGqEi2j1zlSrEgIgPKnqEM2jzCznRJQSEgBAQAslBQAQhOXtR9pl49QLCReeee64JFqFRQOdEqgtKdfFc1PuQT+ZZF1988XLbIpdqHhpXCAgBISAE6kZABKGG3w5PTqTZDt4DwgokJnp4oVTQ8Fz6CLRq1crklo8//njr3KhLCAgBISAEkoOACEJy9qLsM3GCMGXKFOuHsGjRojBkyJDQv3//koQWfIE8F1Em+jHQrZDWz0gt6xICQkAICIHkICCCkJy9KPtMvHrhvPPOM10CjDbljS1btiw5QaD5z1577WXP22233QJVDVylyHkoO7B6oBAQAkIgBQiIIKRgEwtdAgSBBjw9e/Y01cR11lnH5JWRPy6loXZiQv8FntusWbPw/PPP/6DZT6Fr0ueEgBAQAkKgOAiIIBQHx6ocBUNN6+Xu3buHu+++20oNH3300bDxxhuXdD0e2rjkkkvC73//e+ve+MILL5iqogSTSgq9BhcCQkAIxEZABCE2VOm7EUNN/4VjjjkmTJs2zaoKZsyYERo3blzyxfLs+++/3/IP1lhjDft59913F0EoOfJ6gBAQAkIgHgIiCPFwSuVdGOn333/fOijOnDkztG/fPtx+++1hgw02KPl6efaCBQtC8+bNraU03R3POeccEYSSI68HCAEhIATiISCCEA+nVN6FkabMsFevXuGxxx4LJ5xwQhg6dKjlIpTycv0FRJI22mgjaxbVtWvXcNttt5U096GUa9LYQkAICIG0ISCCkLYdjbEeN9DeNIk8ABQUx4wZY+GGn/zkJzFGKfwWfz5iSU2aNDE1RcILs2fPlgehcFj1SSEgBIRAUREQQSgqnNUxmBtoKhjOPvvscP3111sFAfkHbdq0KbmR9uej2kh7afo/bLvttuGpp54Kq666anWAqFkKASEgBFKOgAhCyjc42/LcQOM16N27t+UfYKjHjh0bmjZtWjY3PwTh9NNPN4nnzTff3MIchBx0CQEhIASEQOUREEGo/B6UfQYQBPovQAgQSfrggw/CiBEjwrHHHht++tOflo0gMA+8FyeffLIlRt51112hbdu2ZcdDDxQCQkAICIEfIyCCUINvBYb5008/DRdccEG4+uqrLQ9g4sSJ1ua5VC2e6/Jk4DWgemKttdYKV155pSVK6hICQkAICIHKIyCCUPk9KOsMPLxAe2e8B/fdd19A0fCPf/yjEYVyXszl1VdftbbPJEb269cvDBo0yKZQSiXHcq5RzxICQkAIVCsCIgjVunMFzttVDHHnk6D41ltvheHDh5sWAuGFcl7MhfAGeQd4LpgDIQcRhHLugp4lBISAEMiOgAhCjb0Z3klx5MiR4dxzz7WqgfHjx4dOnTqVvHohE2rmQqkjCYoQBeYwefJk9WSosXdSyxUCQiCZCIggJHNfSjIrDy989tln4fLLLzd3PlULN9xwg3VWLLdb35MlO3bsGB588EHLRcCzse6665Z9LiUBXIMKASEgBKoYARGEKt68fKfu4YUlS5ZYzgGVC3vuuWcYNmxYaNWqVdmNss/nT3/6U/jtb39rsst4Nvbee++yzyVfLHW/EBACQiDtCIggpH2HI+tzgzx//vwwcOBA6+BI1cAf/vAHS1CshAeB6T388MNh3333Deutt14YMGBAOOuss8o+lxp6DbRUISAEhEAsBEQQYsGUjpsgCIgTPfTQQ1YxQB8GwgyIFa255poVMcrMCcEmOkmutNJKoUePHuZFKDdZSccOaxVCQAgIgeIhIIJQPCwTP5InKN56663hjDPOsPlijI888sjQsGHDihhl7yi50047hffeey8cdthh4ZZbbrH56BICQkAICIHKISCCUDnsy/5kjDEJitdcc02gQdOmm24arr322tChQwcjB5U6tTOnLl26mGejc+fOAQKDR0OXEBACQkAIVA4BEYTKYV/2J0MQ3n333XDJJZcYSWjXrp0lKHJ656oUQaDUsX///kZWyEW46aabjLzoEgJCQAgIgcohIIJQOezL+mQvcXzhhRfCOeecE6ZNm2atnS+99NLw85//vKxzyXwYXSUhLCQntm7d2n6mq6QuISAEhIAQqBwCIgiVw75sT3ZywPdZs2ZZc6RFixaZQaaCodwKipkL/+abb0wgqVu3bmGLLbYIgwcPtrwIXUJACAgBIVA5BEQQKod92Z7sBOHbb7+10sbjjz/ewgk0a6KaAZnjSl50lqRpE2JNP/vZz4y4IAPNVamwRyXx0LOFgBAQAklAQAQhCbtQ4jk4Qfjqq69MVvmUU06x/gcXXXRROOmkkypuhCEIzz33XNhll12s1PG0004LiCdVMnGyxFui4YWAEBACiUdABCHxW1T/CTpBWLp0aRg1apSpFm6zzTbh4osvDoccckjFCQLaDK+//nrYZ599rHlU9+7drfxylVVWqfjc6o++RhACQkAIVCcCIgjVuW95zdoVFN9///1w2WWXWeUC7nwSFEkGrLQbH4Lw8ccfmzbDhAkTrGnTVVddZfkIlZ5bXkDrZiEgBIRAihAQQUjRZta1FCcIixcvNu/BHXfcYYJEQ4YMCZtttlnFjTDzo5KB8kZUHZs1a2YKj8xRBKEGXlAtUQgIgUQiIIKQyG0p7qSiPRjIP5g7d27o2bOneRMqJbEcXaFLQE+fPj0ceuihFlogSfG8884TQSjuq6DRhIAQEAKxERBBiA1V9d7oBGHevHnhuOOOC3gS+vTpYzkIK6+8csWNsOdIPPnkk+Hoo4+2fITevXsbgYEs6BICQkAICIHyIyCCUH7My/5EJwiUEh5++OGBZEWUCylzpMQxCW585ghxQcSJEMhRRx1llQwbb7xx2fHSA4WAEBACQiAEEYQaeAvchT9jxgyL6+M1wBDzxZUUgkCi4vDhw424tG3b1pIo27dvXwM7pCUKASEgBJKHgAhC8vak6DPyLo633XabiSQhrYyCInkISbk8UZFGTcxrk002MUVFQiJJITFJwUrzEAJCQAiUAwERhHKgXOFneBdHTuZXXnmlnc5x3/M9KRdzRDBpypQp4dhjj7XQB/MlFCKCkJRd0jyEgBCoJQREEGpgt9EZQIAIfYGXXnrJEgGvvvrqsPbaaydm9Z4nMXv2bFN6fOWVV8Lvfvc7q2RIQiJlYoDSRISAEBACZUJABKFMQFfqMX4ynzNnjrVSXm211ULfvn3D+eefX/EeDFFMnCAsXLgwDBw40BIVCTVQaUF/hiTkSVRqD/VcISAEhEAlEBBBqATqZXwmhpceDBhavlq2bBkuv/zysP/++yfK6Hqp4yeffGJKj/SJaNeunf280047JWquZdw+PUoICAEhUDEERBAqBn15HozhXbJkSdhtt93Cu+++G7p27Rquu+46a/Fc6S6O2TwItH6+8cYbw69//euw7rrrWu8IxJPkQSjP+6KnCAEhIAQcARGElL8LEIRZs2ZZIyQMLkl/qBQmsVOil2Pee++9JuQEsaEnAx0nJZiU8hdVyxMCQiBxCIggJG5Lijchj+tTDUBvA8ILY8aMMW9CUi/mTCIleQh33nmn5SHwM2WPXPIkJHXnNC8hIATShoAIQtp2NLIe1xaAEDz33HOhY8eOAS2E1VdfPbGr9pJM8iTQQWjevHkYPXp02GOPPRLp9UgskJqYEBACQqCeCIgg1BPApH7ck/5o8bzpppsGSh1RUST/gEqG6JWkU7lXXZCHQOdJujyOHz8+HHTQQWHFFVeUByGpL5zmJQSEQOoQEEFI3Zb+Z0FOED744AOrAnj77bftNE6JI0l/0dLBpBEE5v7444+Hc889N9A/4o9//GM49dRTw1prrSWCkNL3VcsSAkIgeQiIICRvT4oyI88/QJ2QSoBLLrkkvPfee2HzzTcP3bp1s68WLVrYqdyvJBAFJzZUXJB7gCehS5cuYciQIaFp06YiCEV5OzSIEBACQiA3AiIIuTGqyjvc0DJ5tAUmTpwYhg4dGl599dXQqFEj0xhA0hg9hDXWWCMx8X2f95dffhkuvPBCk4Teeuutw4QJE6SHUJVvoiYtBIRAtSIgglCtOxdz3u5J+Oyzz8IDDzxgVQyPPPKIeQ623HLL0Llz59CjR4/QrFmzRHgTnCDg+YAcIJiE1PLUqVON1CTByxETet0mBISAEKhqBEQQqnr7ck/eDa5XNNDj4M9//nO4+eabTTiJigZyE04++eRw+OGHhzXXXNMGraSIks+Zzo4kKpJoeffdd4cOHTr8gMTkXr3uEAJCQAgIgUIREEEoFLkq+lyUJFDNsHTp0jB37twwYsSIMHPmzPDtt99a4yYMMG2gcen7Sb1SJ3ZPVCSp8u9//7t5PmgyhQKkLiEgBISAECg9AiIIpce44k+I5iP4ZCAFH374YeCUTmfHN954IzRs2DBstNFG4fTTTzep40rKMTPnxYsXh9NOOy3MmDHDPAkDBgyw/AldQkAICAEhUHoERBBKj3HinhAlDHgUOKHTVpnchH/96182X8IOJAlSEglx8KtcHgXmCIEh9DF58mTzHpCT0Lhx48ThqQkJASEgBNKIgAhCGnc1zzVhjL/44otw1113heHDh4eXX345kNRI/wMSA8844wxTMkSHwMsiS00UmNPnn39uUsuTJk2yVtU33HBD2GyzzfJcnW4XAkJACAiBQhAQQSgEtZR9JupRICFw7NixlsT45ptvmpEmP+GII44Ip5xySthmm23CqquuWvJqAuZEqSMEAXloiMq4ceNMx0GXEBACQkAIlB4BEYTSY1w1T/CSSL7Pnz/fZJlJYnz99dctkREj/Zvf/Cbsvffepp0QvUrhUYAg0MkRgtC+fXsjLiIIVfM6aaJCQAhUOQIiCFW+gcWcfrTagXG/+uorkzrGm/DQQw+Ff/7zn2HHHXcMvXv3Dp06dVom11yK1tHM5f/+7/+WEQRIyU033aQQQzE3XGMJASEgBJaDgAiCXo+sCES9Ce+88064/vrrrWnSa6+9Zqd4kgYJO2y11VaWq1Bsb4LnRRBiQAUSxUc8Gk2aNNGOCQEhIASEQBkQEEEoA8jV+IhoXgI/0/TpnnvuMaLw9NNPm7rhnnvuaX0S0E+gugBxJe4thsgS43z00UdWxUDy5JFHHmlS0apiqMa3SXMWAkKgGhEQQajGXSvjnKNhByob6LJ4yy23hOnTp5sBp5U0uQnkCPAd+WbIQzE8CgsXLjRNhgcffDBccMEF1omShEldQkAICAEhUHoERBBKj3FVPyFTZOmbb76xhk/0RiAnYMGCBbY+BJbQTmjZsmVo3bq1EYaNN9644CZQPHfWrFnhzDPPDM8++6xVMBx22GE/CmdUNbiavBAQAkIgwQiIICR4c5I4Nc9NoEMkAks0gKJPwqJFiyy8sNpqq4UNN9wwbLfddhZ6OPDAA8Mmm2yStYdCXZUP/gw6OKKgSHLkvffeG/bbbz/1YkjiS6E5CQEhkEoERBBSua2lW1SmCuOnn34a3nrrLevtAFlAjREFRASV1llnHQtBtGnTJhx88MFh9913t+ZQXHVVPjg5oKxyyJAhYfDgwdZAChLC50tRTlk6tDSyEBACQqB6ERBBqN69S8TM3aBTEokaIz0dSGYkJIB+AgadKgfIwgEHHBD69OljYYiVVlpp2fy5JzMp8sUXXwwDBw40mWW8EMOGDftBE6lELF6TEAJCQAikGAERhBRvbjmWlpmjQG+Hr7/+Orz99tvWZAkDj3cBRUZ6Oqy//vphiy22sO+ULFIyiZeBxEaEkSAY7733Xpg3b16YPXu2EYdrr73WqhjKoeBYDsz0DCEgBIRANSAgglANu1RFc8z0BJDUSFkkJYr33XefiR/FvfAskJhImAG9BQ9NxP287hMCQkAICIHCERBBKBw7fTImApCGpUuXWqIhjZcoX+S/CUmQaxAlFWgokL+At2C33XazMAPqjcXQVog5Xd0mBISAEBAC5Ip9n+kjFixCoMgIeJ4CwxKCoKU0OQskMxJOINGR3xNmaNSokWkdkMxI3gK/K4WUc5GXqOGEgBAQAqlDQAQhdVuqBQkBISAEhIAQqD8CIgj1x1AjCAEhIASEgBBIHQIiCKnbUi1ICAgBISAEhED9ERBBqD+GGkEICAEhIASEQOoQEEFI3ZZqQUJACAgBISAE6o+ACEL9MdQIQkAICAEhIARSh4AIQuq2VAsSAkJACAgBIVB/BEQQ6o+hRhACQkAICAEhkDoERBBSt6VakBAQAkJACAiB+iMgglB/DDWCEBACQkAICIHUIfD/twd1ipTe8NoAAAAASUVORK5CYII=;imageBackground=none;imageBorder=#000000;" vertex="1" parent="1">
                    <mxGeometry x="425" y="300" width="280" height="204.08" as="geometry"/>
                </mxCell>
            </root>
        </mxGraphModel>
    </diagram>
</mxfile>